<?xml version="1.0" encoding="utf-8"?>
<!-- Generator: Adobe Illustrator 16.0.0, SVG Export Plug-In . SVG Version: 6.00 Build 0)  -->
<!DOCTYPE svg PUBLIC "-//W3C//DTD SVG 1.1//EN" "http://www.w3.org/Graphics/SVG/1.1/DTD/svg11.dtd">
<svg version="1.1"
	 id="Layer_1" xmlns:rdf="http://www.w3.org/1999/02/22-rdf-syntax-ns#" xmlns:cc="http://creativecommons.org/ns#" xmlns:dc="http://purl.org/dc/elements/1.1/"
	 xmlns="http://www.w3.org/2000/svg" xmlns:xlink="http://www.w3.org/1999/xlink" x="0px" y="0px" width="309px" height="46px"
	 viewBox="0 0 309 46" enable-background="new 0 0 309 46" xml:space="preserve">
<path fill="#FFFFFF" d="M40.842,26.022h8.728c3.289,0,4.866,1.455,4.866,4.114c0,3.476-2.525,4.296-5.436,4.296h-8.157V26.022z
	 M26.935,45.183H52.54c7.964,0,15.803-4.683,15.803-13.725c0-6.637-3.791-9.859-7.838-11.252c3.35-1.829,5.566-4.297,5.566-8.846
	c0-4.615-2.531-11.317-14.417-11.317H26.935V45.183z M40.842,10.789h7.333c2.848,0,4.741,0.826,4.741,3.094
	c0,2.914-1.831,3.734-4.741,3.734h-7.333V10.789z"/>
<g>
	<path fill="#FFFFFF" d="M81.673,25.074c0.568-3.535,2.718-5.496,6.443-5.496c3.228,0,5.5,2.461,5.5,5.496H81.673z M105.63,31.591
		c0-12.771-5.627-20.042-18.649-20.042c-10.366,0-17.322,7.776-17.322,17.321c0,10.939,7.904,17.134,18.398,17.134
		c7.46,0,14.348-3.287,16.881-10.37H93.24c-1.011,1.586-3.225,2.34-5.246,2.34c-3.919,0-6.067-2.654-6.39-6.383H105.63z"/>
	<path fill="#FFFFFF" d="M120.856,2.385h-12.517v9.985h-5.565v7.716h5.565v15.681c0,8.972,5.878,9.791,11.192,9.791
		c2.649,0,5.497-0.373,8.024-0.373v-9.49c-0.947,0.133-1.894,0.193-2.841,0.193c-3.164,0-3.857-1.322-3.857-4.356V20.086h6.699
		v-7.716h-6.699V2.385z"/>
	<path fill="#FFFFFF" d="M129.631,45.183h12.514V27.862c0-5.254,2.848-6.322,4.999-6.322c3.665,0,4.105,2.648,4.105,6.444v17.199
		h12.52v-22.51c0-7.519-5.375-11.125-11.253-11.125c-5.312,0-8.09,1.833-10.242,4.36h-0.129V0.043H129.63L129.631,45.183
		L129.631,45.183z"/>
	<path fill="#FFFFFF" d="M177.407,25.074c0.568-3.535,2.719-5.496,6.449-5.496c3.221,0,5.502,2.461,5.502,5.496H177.407z
		 M201.364,31.591c0-12.771-5.627-20.042-18.648-20.042c-10.365,0-17.316,7.776-17.316,17.321c0,10.939,7.9,17.134,18.396,17.134
		c7.457,0,14.342-3.287,16.877-10.37h-11.699c-1.002,1.586-3.223,2.34-5.244,2.34c-3.922,0-6.068-2.654-6.389-6.383H201.364
		L201.364,31.591z"/>
	<path fill="#FFFFFF" d="M231.887,21.92c-0.314-8.41-8.844-10.371-15.928-10.371c-6.574,0-15.486,2.152-15.486,10.43
		c0,5.629,3.855,8.665,13.395,10.305c5.828,1.014,6.896,1.581,6.896,3.476c0,1.9-2.59,2.527-4.236,2.527
		c-1.514,0-2.721-0.374-3.354-0.947c-0.947-0.82-1.453-1.768-1.514-2.908h-11.953c0.193,8.476,8.664,11.571,16.381,11.571
		c7.963,0,16.688-2.46,16.688-11.571c0-5.37-3.662-7.836-7.838-9.164c-4.174-1.388-8.922-1.642-10.998-2.528
		c-0.699-0.313-1.461-0.761-1.461-1.707c0-2.148,2.021-2.528,3.791-2.528c1.02,0,2.025,0.315,2.787,0.948
		c0.82,0.567,1.387,1.387,1.453,2.468H231.887z"/>
	<path fill="#FFFFFF" d="M268.801,0.043h-12.523v15.934h-0.123c-1.893-2.782-5.242-4.428-8.977-4.428
		c-11.004,0-13.975,9.357-13.975,17.074c0,8.216,4.488,17.381,13.787,17.381c6.129,0,8.023-2.339,9.605-4.421h0.125v3.594h12.08
		V0.043L268.801,0.043z M256.723,28.743c0,3.923-1.008,8.156-5.502,8.156c-4.482,0-5.496-4.234-5.496-8.156
		c0-3.854,1.012-8.09,5.496-8.09C255.715,20.652,256.723,24.888,256.723,28.743"/>
	<path fill="#FFFFFF" d="M292.418,33.485c-0.182,3.408-2.4,5.123-5.242,5.123c-2.281,0-3.924-1.521-3.924-3.035
		c0-2.215,1.461-2.913,4.242-3.542c1.707-0.38,3.408-0.821,4.924-1.581V33.485L292.418,33.485z M304.436,24.382
		c0-6.323,0.121-12.828-15.553-12.828c-7.777,0-16.502,1.514-16.881,10.741h11.637c0.057-1.394,0.82-3.35,4.67-3.35
		c2.027,0,4.109,0.821,4.109,3.035c0,2.088-1.707,2.595-3.41,2.91c-6.383,1.201-18.521,0.821-18.521,11.191
		c0,6.889,5.244,9.924,11.566,9.924c4.049,0,7.904-0.886,10.562-3.922h0.121c-0.061,0.887,0.133,2.216,0.447,3.102h12.773
		c-1.4-2.087-1.521-4.869-1.521-7.335V24.382L304.436,24.382z"/>
</g>
<path fill="#FFFFFF" d="M-0.002,19.712h19.321V0.005H-0.002V19.712z M12.51,12.765H6.803V6.943h5.707V12.765z"/>
<path fill="#FFFFFF" d="M303.77,1.595c2.396,0,4.311,1.95,4.311,4.396c0,2.473-1.916,4.405-4.334,4.405
	c-2.396,0-4.346-1.932-4.346-4.405c0-2.445,1.949-4.396,4.346-4.396H303.77z M303.747,2.278c-1.928,0-3.508,1.658-3.508,3.713
	c0,2.082,1.582,3.722,3.531,3.722c1.955,0.017,3.514-1.64,3.514-3.707c0-2.071-1.559-3.729-3.514-3.729H303.747z M302.926,8.541
	h-0.771V3.651c0.404-0.066,0.795-0.121,1.377-0.121c0.75,0,1.234,0.158,1.521,0.367c0.297,0.215,0.451,0.545,0.451,1.014
	c0,0.651-0.424,1.036-0.959,1.189V6.14c0.43,0.083,0.729,0.473,0.822,1.189c0.115,0.771,0.236,1.057,0.312,1.211h-0.818
	c-0.117-0.154-0.232-0.6-0.326-1.245c-0.119-0.627-0.439-0.865-1.057-0.865h-0.553V8.541L302.926,8.541z M302.926,5.831h0.568
	c0.645,0,1.189-0.237,1.189-0.843c0-0.43-0.309-0.854-1.189-0.854c-0.254,0-0.43,0.021-0.568,0.039V5.831z"/>
</svg>
