<?xml version="1.0" encoding="utf-8"?>
<!-- Generator: Adobe Illustrator 19.2.1, SVG Export Plug-In . SVG Version: 6.00 Build 0)  -->
<svg version="1.1"
	 id="svg2" xmlns:cc="http://creativecommons.org/ns#" xmlns:dc="http://purl.org/dc/elements/1.1/" xmlns:rdf="http://www.w3.org/1999/02/22-rdf-syntax-ns#" xmlns:svg="http://www.w3.org/2000/svg"
	 xmlns="http://www.w3.org/2000/svg" xmlns:xlink="http://www.w3.org/1999/xlink" x="0px" y="0px" viewBox="0 0 715.3 232.5"
	 style="enable-background:new 0 0 715.3 232.5;" xml:space="preserve">
<style type="text/css">
	.st0{fill:#FFFFFF;}
</style>
<polygon class="st0" points="544.1,177 544.1,177 544.1,177 "/>
<g>
	<path class="st0" d="M637.1,80.9c-8.9,4.8-21.9,6.3-40.7,6.6c0-9.4,0.1-17.5,0.1-29.5c0-0.2,0-0.3,0-0.3
		c0.1-12.2-6.2-23.3-14.7-30.8c-8.2-7.2-17.9-11.3-26.4-12.8c-0.1,0-0.2,0-0.5-0.1c-7.6-1.3-13.2-0.7-14.8-0.7
		c-3.1,0-5.4-0.1-7.8-0.4c-0.1,0-0.1,0-0.1,0c0,0-0.3-0.1-0.5-0.1C526.5,7.6,524,5.1,519,0c-2.4,4.3-3.6,6.5-6,10.8
		c-5.6-1.5-8.4-2.3-14-3.7c0.8,6.8,1.2,10.3,2.1,17.1c-2-0.7-5-1.6-8.6-2c0,0,0,0-0.1,0c0,0,0,0,0,0c-0.1,0-0.2,0-0.3,0
		c-2.9-0.3-5.9-0.2-8.9,0.4c-1.4,0.2-1.5,0.3-3.4,0.2c-0.1,0-0.1,0-0.2,0c-0.2,0-0.6-0.1-1-0.2c-0.2,0-0.3-0.1-0.4-0.1
		c-4.1-3.1-6.2-4.7-10.3-7.7c-1.1,1.2-1.6,1.9-2.7,3.1c-1.7-3.5-2.6-5.2-4.3-8.7c-4.2,3.9-6.4,5.9-10.6,9.9
		c-4.6-4.4-6.9-6.6-11.5-10.9c-1.4,2.9-2.1,4.3-3.4,7.2c-1.6-3.7-2.4-5.5-4.1-9.1c-4.9,4.7-7.4,7.1-12.4,11.8c-0.3,0-0.5,0-0.7,0
		c0,0-0.1,0-0.3,0c-0.8-0.1-1.2-0.1-1.7-0.2c-5.6-4-8.5-5.9-14.1-9.9c-1.6,4.1-2.4,6.2-4,10.3c0,0,0,0,0,0c-2.2-3.2-3.3-4.8-5.6-8
		c-4.4,2.4-6.6,3.7-11,6.1c-0.4,0.1-1.1,0.2-1.3,0.2c-0.1,0-0.2,0-0.3,0c-0.2,0-0.6,0-0.9-0.1c-0.2,0-0.3,0-0.4-0.1c0,0-0.1,0-0.1,0
		c-0.1,0-0.1,0-0.2,0c0,0,0,0,0,0c0,0-0.1,0-0.1,0c-4.9-2.9-7.3-4.4-12.3-7.3c-1.9,3.4-2.9,5-4.9,8.4c-2.4,0-3.7,0-6.1,0
		c-5-2.2-9.8-3-13.8-3c-2.8,0-4.2,0-6.9,0.1c0,0,0,0,0,0c-3,0-4.5,0.1-7.4,0.1c-5.1,0.2-9.8,1.6-14,3.8c-0.8,0-1.1,0-1.9,0.1
		c-2.8-5.2-4.2-7.9-7-13.1c-4.2,4.5-6.4,6.7-10.6,11.2c-4.6-3.8-6.9-5.7-11.5-9.5c-1.4,3-2,4.6-3.4,7.6c-1.6-3.5-2.5-5.2-4.1-8.7
		c-4.9,5.3-7.4,8-12.3,13.4c-0.3,0-0.5,0.1-0.7,0.1c0,0-0.1,0-0.3,0c-0.8,0-1.2,0-1.7,0c-5.6-3.3-8.5-4.9-14.1-8.1
		c-0.2,0.6-0.3,0.8-0.5,1.4c-4.8,3.4-7.2,5.2-12.1,8.7c-0.3-0.1-0.7-0.1-1.1-0.2c0,0-0.1,0-0.1,0c0,0,0,0-0.1,0
		c-1.7-0.2-5.1-0.6-9.2-0.2c0,0,0,0-0.2,0c0,0-0.1,0-0.1,0c-2.9,0.3-6,1.1-9.2,2.4c-1.5,0.5-1.5,0.6-3.5,0.9c0,0,0,0-0.1,0
		c-0.2,0-0.6,0.1-1,0.1c-0.1,0-0.3,0-0.4,0c-4.1-2.2-6.2-3.3-10.3-5.5c-0.7,1-1.1,1.6-1.9,2.6c-1.4-1.5-2.9-2.8-4.6-4
		c-7.7-5.4-18.3-7.3-29.7-5.5c0,0,0,0,0,0c-0.1,0-0.1,0-0.2,0.1c-4.6,0.7-8.4,1.3-12.9,2.7c-0.1,0-0.1,0-0.1,0.1c-0.1,0-0.1,0-0.1,0
		c-2,0.7-3.9,1.5-5.4,2.1c-0.7,0.3-1.4,0.5-1.9,0.7c-0.2,0.1-0.4,0.1-0.5,0.2c-0.1,0-0.1,0-0.1,0c0,0,0,0,0,0c0,0-0.1,0-0.1,0
		c-0.5,0-1.5-0.1-2.3-0.1c-0.3,0-0.6-0.1-0.8-0.1c-5.5-2.3-8.3-3.4-13.9-5.6c-1.9,4.8-2.8,7.2-4.7,12c-4.8,1.2-7.2,1.8-12,3.1
		c2.2,16.3,3.2,24.5,5.4,40.8c1.7-0.3,2.5-0.5,4.2-0.8c0,9.4,0.1,15.1,0.1,22.9c-20.8-0.9-30.5-3.8-37.5-9.3
		C66.8,107.6,52.5,114.3,0,114.3v7.6c54.4,0,66.8,4.8,78.2,31.5c8.4-4.6,20.5-6.1,37.7-6.5c0,11.1,0.1,17.6,0.1,29.6
		c-2.1,0.4-3.1,0.6-5.1,1c-1.6,18.8-2.4,28.1-4,46.9c4.8-1.6,7.2-2.3,12-3.8c2.1,4,3.1,6,5.2,10c5.4-4.8,8.1-7.2,13.5-12
		c0,0,0.1,0,0.1,0c2.4-0.4,4.4-0.5,8.2-0.5c4.8,0,10.4-0.3,17.4-1.4c7.2-1.1,17.2-4.1,25.8-11.7c2-1.8,3.9-3.8,5.5-6
		c0.5,1,0.8,1.5,1.3,2.5c4.7-4.8,7.1-7.2,11.9-11.9c0.8,0,1.6,0,2.5,0.1c0.1,0,0.1,0,0.2,0c0.1,0,0.1,0,0.1,0v0
		c0.9,0.1,4.5,0.8,9.2,0.3c0.3,0,0.3,0,0.3,0c5-0.5,9.1-2.1,9.6-2.3c0.1,0,0.1,0,0.2-0.1c0.1,0,0.1,0,0.2-0.1c0.1,0,0.1-0.1,0.3-0.1
		c0,0,0,0,0,0c2.1-0.7,1.3-0.5,2.1-0.6c0.1,0,0.2,0,0.4,0c0.2,0.1,0.6,0.1,1,0.3c4.7,1.2,7,1.8,11.6,3c1.6-3,2.4-4.5,4-7.4
		c0.5-0.1,0.7-0.2,1.2-0.4c0,0.4,0,0.6,0.1,0.9c2.3-0.2,3.5-0.3,5.8-0.5c0.3,0.3,0.4,0.4,0.7,0.7c2.3,5.7,3.4,8.6,5.6,14.4
		c4.7-5.2,7.1-7.7,11.8-12.9c4.9,5.4,7.4,8.2,12.3,13.7c2.5-7.3,3.7-11,6.1-18.3c2.3-0.1,3.5-0.2,5.8-0.3c0.4-3.9,0.6-5.8,1.1-9.7
		c1.9,2.6,4.2,4.7,6.7,6.4c5.9,4.1,12.6,6.4,19.7,6.4c0.3,0,0.5,0,0.8,0c2.4-0.1,3.6-0.2,6-0.3c0.2,0.2,0.3,0.3,0.5,0.6
		c2.8-0.2,4.3-0.3,7.1-0.5c4.8-0.2,9.5-1.6,13.8-4c2.2,0,3.3,0,5.4,0c2.2,4.3,3.3,6.5,5.5,10.8c5.1-3.4,7.6-5.1,12.7-8.4
		c1.3,0.1,2.6,0.4,4.7,0.9c3.8,0.9,7.6,1.3,11.3,1.4c3.3,0.1,6-0.4,7.5-0.7c0.3,0,0.5-0.1,0.8-0.1c4.4,2.1,6.6,3.1,11,5.3
		c0.8-1.1,1.2-1.7,2-2.9c1.7,4.5,2.5,6.7,4.2,11.2c4.7-4.6,7.1-6.8,11.9-11.4c4.9,6.1,7.4,9.1,12.3,15.2c2.5-7,3.7-10.5,6.2-17.5
		c2.3,0.2,3.5,0.3,5.8,0.5c0-0.4,0.1-0.7,0.1-1.1c1.2,0.3,1.9,0.5,3.1,0.8c2.7,5.5,4,8.3,6.7,13.8c4.8-3.7,7.2-5.6,12-9.3
		c0.8,0.2,1.6,0.4,2.5,0.6c0.1,0,0.1,0,0.2,0.1c0.1,0,0.1,0,0.2,0c0.9,0.3,4.5,1.8,9.2,2.3c0.3,0,0.3,0,0.3,0c5,0.6,9.1-0.1,9.7-0.2
		c0.1,0,0.1,0,0.2,0c-1,6.3-1.5,9.5-2.5,15.9c5.4,0.6,8.1,1,13.5,1.7c0,0,0,0,0,0c2.8,4.8,4.3,7.1,7.1,11.9
		c4.5-2.8,6.8-4.2,11.3-6.9c0.7,0,1.9-0.1,2.3,0c0,0,0.1,0,0.1,0c0.2,0,0.3,0,0.4,0.1c0.6,0.1,1.9,0.4,2.9,0.8
		c0.8,0.3,2.2,1,2.3,1.1c4,2.4,6,3.6,10.1,6c2.4-2.5,3.7-3.7,6.1-6.2c0,0,0.1,0,0.1,0c0,0,0,0,0.1,0c0,0,0,0,0,0
		c1.1,0.2,1.7,0.3,2.9,0.5c1.3,5,2,7.5,3.3,12.5c5.9-2.7,8.9-4.1,14.8-6.7c0.1,0,0.1,0,0.2,0c0.1,0,0.1,0,0.1,0c0.1,0,0.1,0,0.2,0
		c4.3,4.6,6.4,6.9,10.7,11.6c2.8-4.4,4.2-6.6,7.1-11.1c5,1,7.4,1.5,12.4,2.5c-2.3-17.8-3.4-26.6-5.7-44.4c-1.4-0.3-2.1-0.4-3.5-0.7
		c0-14,0.1-21.1,0.1-34.9c23.1,0.7,33.4,3.6,40.9,9.4c11.4-26.7,25.7-33.4,78.2-33.4v-7.6C660.9,112.4,648.5,107.6,637.1,80.9z
		 M593.7,184.3L593.7,184.3c1.7,12.9,2.5,19.3,4.2,32.2c-2.9-0.6-4.3-0.8-7.2-1.4c0,0,0,0,0,0c-0.2,0-0.6,0.1-1,0.2
		c-0.6,0.2-1.2,0.5-1.5,0.6c-1.6,2.5-2.4,3.8-4,6.3c-2.4-2.6-3.6-3.8-5.9-6.4c-0.1-0.1-0.2-0.1-0.4-0.2c-0.5-0.2-1.4-0.4-2.4-0.6
		c-1.2-0.3-3-0.3-3.4-0.3c-3.2,1.4-4.8,2.2-8,3.6c-0.9-3.5-1.4-5.3-2.4-8.8c0,0-0.2-0.6-0.7-1.2c-0.3-0.3-0.6-0.7-0.9-0.9
		c0.1,0.9,0.2,1.4,0.3,2.3c-3-0.5-4.5-0.7-7.5-1.2c0,0-1,0-1.9,0.2c-0.9,0.2-1.9,0.6-2.1,0.8c0,0,0,0,0,0c-1.3,1.4-2,2-3.4,3.4
		c-2-1.2-3-1.8-5-3c-0.7-0.4-2.2-1.2-3.7-1.8c-1.6-0.6-3.3-1-4.5-1.2c-1.7-0.3-5.5-0.1-6.2,0.1c-2.4,1.5-3.6,2.2-6.1,3.7
		c-1.5-2.6-2.3-3.8-3.8-6.4c0,0,0,0,0,0c-0.3-0.2-0.7-0.6-1.2-0.9c-0.8-0.6-2-1.2-2.4-1.4c-2.9-0.4-4.4-0.6-7.3-0.9
		c1-6.1,1.4-9.1,2.4-15.2c-0.4-0.2-0.6-0.3-1-0.5c-1.4-0.7-1.8-0.9-1.8-0.9c-1.1-0.3-1.6-0.5-2.1-0.5c-1.8-0.2-2.3-0.1-4.2,0.2
		c0,0,0,0,0,0c-0.1,0-0.1,0-0.2,0c-1.2,0.1-4.2,0.7-8.3,0.2c-4.1-0.5-6.9-1.8-8.2-2.1c-2-0.6-4.2-1.1-6-1.3c-0.5,0-0.5,0-0.6,0.1
		c-2.8,2.2-4.2,3.2-7,5.4c-1.5-3.1-2.3-4.7-3.8-7.8c-0.1-0.1-0.2-0.2-0.3-0.3c-0.5-0.4-1.3-0.8-1.5-0.9l0,0c-2.4-0.6-3.6-1-6-1.6
		c1.3-11,1.9-16.4,3.2-27.4c1.7,0.1,2.5,0.2,4.1,0.4c0-9.7,0-14.5,0-24.1c0-9.2-1.4-13.2-2.2-14.8c-1.3,0.6-1.9,0.9-3.2,1.6
		c-0.1,0.1-0.3,0.3-0.5,0.8c-0.5,1-1.2,3.2-1.6,6.8c-2.6,22.9-3.9,34.4-6.5,57.3c-1.9-0.1-2.8-0.2-4.7-0.4
		c-1.5,4.3-2.3,6.4-3.8,10.7c-3-3.7-4.5-5.6-7.5-9.2c-0.7-0.1-1.4-0.3-2.3-0.3c-0.8-0.1-1.3,0-1.6,0c-3,2.9-4.5,4.3-7.5,7.2
		c-1.5-3.9-2.2-5.9-3.7-9.8c-0.2,0-0.3,0-0.5,0c-1,0-1.5,0-2.6,0c-0.4-0.1-1.4,0.5-1.4,0.7c-1.3,1.8-1.9,2.7-3.2,4.5
		c-2.2-1.1-3.4-1.6-5.6-2.7c-0.4-0.2-0.8-0.4-1-0.5c-0.1,0-0.1-0.1-0.2-0.1c-0.7-0.1-1.1-0.2-1.2-0.3c0,0-0.2,0-0.6,0.1
		c-0.5,0.1-1.1,0.2-2,0.3c-1.5,0.3-3.4,0.7-6,0.7c-3.3-0.1-6.6-0.5-9.7-1.2c-2.8-0.7-5-1.1-7.6-1.1c-1.5,0.1-0.4-0.2-1.9,0.6
		c-2.7,1.8-4.1,2.7-6.8,4.5c-1.3-2.7-2-4-3.4-6.6c-0.1-0.1-0.2-0.2-0.4-0.3c-0.3-0.2-0.7-0.4-0.9-0.5c-2.9,0-4.4,0-7.3,0
		c0.2-1.4,0.2-2.1,0.4-3.4c0,0-0.1,0.1-0.1,0.1c-4.9,4.8-10.5,7.2-16.1,7.4c-1.4,0.1-2.1,0.1-3.5,0.2c-0.7-0.8-1.1-1.2-1.8-2
		c-0.3,0-0.8,0-1.7,0c-0.5,0-1,0-1.3,0.1c-0.4,0.7-0.7,1.1-1.1,1.8c-1.5,0.1-2.3,0.1-3.9,0.2c-0.2,0-0.4,0-0.5,0
		c-5.2,0-10.5-1.8-15.5-5.2c-4.9-3.4-9.2-9.1-9.2-16.6c0-15.9,0-23.9,0-39.9c0-3.3-0.5-5.3-0.9-6.5c0,0.1-0.1,0.1-0.1,0.2
		c-0.5,1.1-1.2,3.3-1.6,7c-2.6,23.3-3.8,34.9-6.4,58.1c-1.9,0.1-2.8,0.1-4.7,0.2c-1.5,4.5-2.3,6.7-3.7,11.2c-3-3.3-4.5-5-7.5-8.3
		c-0.7,0-1.4-0.1-2.3,0c-0.8,0-1.3,0.1-1.6,0.2c-3,3.2-4.5,4.9-7.5,8.1c-1.5-3.7-2.2-5.6-3.7-9.4c-1.9,0.1-2.9,0.2-4.8,0.4
		c-0.1-1-0.1-1.5-0.2-2.5c-4.2,1.2-6.3,1.9-10.5,3.1c0,0-0.1,0-0.2,0.1c-0.2,0.1-0.5,0.2-0.7,0.4c-0.3,0.2-0.7,0.4-1,0.6
		c-0.9,1.7-1.4,2.6-2.3,4.3c-2.3-0.6-3.5-0.9-5.8-1.5c-1.4-0.4-1.8-0.5-1.8-0.5c-1.1-0.1-1.6-0.1-2.1-0.1c-1.8,0.2-2.3,0.5-4.2,1.1
		c0,0,0,0,0,0c-0.1,0-0.1,0-0.2,0.1c-1.2,0.4-4.2,1.6-8.3,2c-4.1,0.4-6.9-0.3-8.2-0.3c-2-0.1-4.2-0.2-6,0.1
		c-0.5,0.1-0.5,0.1-0.6,0.2c-2.8,2.8-4.2,4.1-6.9,6.9c-1.3-2.5-2-3.7-3.3-6.1c-2,6.8-5.5,12.2-10.1,16.3c-7.1,6.3-15.4,8.8-21.5,9.7
		c-6.5,1-11.7,1.3-16.1,1.3c-3.9,0-6.6,0-9.7,0.6c-2.2,0.5-2.2,0.5-3.8,1.8c-2.8,2.4-4.1,3.7-6.9,6.1c-1.4-2.6-2.1-4-3.4-6.6
		c0,0,0,0,0,0c0,0-0.1-0.1-0.2-0.2c-0.2-0.1-0.6-0.2-0.9-0.3c-0.1,0-0.1,0-0.1,0c-3.2,1-4.8,1.5-7.9,2.5c1.2-13.6,1.8-20.3,2.9-33.9
		c2.3-0.4,3.4-0.6,5.6-1.1c0-13.9-0.1-21.6-0.1-34.3c0-1.3,0-2.7,0-4.2c-0.1-9.6-2.8-12.4-3.7-13.4c-1.6-1.5-2.3-2.2-3.9-3.7
		c1.9-1.8,2.8-2.7,4.7-4.6c0.3-0.3,0.5-0.5,0.6-0.6c0,0,0,0,0,0c-0.1-0.3-0.5-0.7-1.2-1.3c-1.5-1.2-2.3-1.8-3.9-3.1
		c1.5-1.8,2.2-2.8,3.7-4.6c1.1-1.4,1.7-2.2,2.3-4.3c0.7-2.1,1.2-5.4,1.1-10.8c0-2.1,0-4.1,0-5.9c0-10.8-0.1-17.9-0.1-30.2
		c-2,0.4-3,0.6-4.9,0.9c-1.6-11.9-2.4-17.8-3.9-29.7c2.8-0.7,4.2-1.1,6.9-1.8c0.5,0,2.4-1.2,2.9-1.8c1.1-2.8,1.7-4.3,2.8-7.1
		c2.8,1.1,4.2,1.7,7,2.8c0.3,0.4,5.8,0.8,6.5,0.5c2-0.3,5.8-2.1,9.5-3.4c3.8-1.2,7.2-1.7,12-2.5c9.9-1.5,18.8,0.1,25.1,4.5
		c3.8,2.6,6.6,6.3,8.3,10.5c0.1-0.1,0.2-0.2,0.4-0.3c1.6-2.2,2.4-3.3,4-5.5c2.2,1.2,3.3,1.8,5.6,3c0,0,0.1,0,0.1,0
		c0.2,0.1,0.6,0.1,1.2,0.2c0.6,0.1,2.2,0.1,3.3-0.1c2.6-0.3,4-0.8,5.6-1.5c2.5-1,5-1.6,7.1-1.8c3.3-0.3,6-0.1,7.7,0.1
		c2.4,0.3,3.2,0.6,4.1,0.6c0.1,0,0.1-0.1,0.2-0.1c0.4-0.2,1-0.6,1.4-0.8c2.9-2.1,4.3-3.1,7.2-5.1c1.1,2.5,1.7,3.8,2.8,6.4
		c0.1,0.1,0.3,0.1,0.4,0.2c0.1,0,0.1,0,0.2,0c1.1-3,1.6-4.5,2.7-7.4c3,1.7,4.5,2.6,7.5,4.3c0,0,0.1,0,0.1,0c0.2,0.1,0.5,0.1,1.1,0.2
		c1.2,0.2,2.3,0.2,3.7,0.1c1.7-0.1,3.7-0.5,4.5-0.7c2.7-2.9,4-4.4,6.7-7.3c1.6,3.3,2.4,5,3.9,8.3c0.1,0,0.1,0,0.2,0
		c1.7-0.1,2.6-0.2,4.2-0.3c0,0,0.1,0,0.1-0.1c1.4-3.2,2.1-4.8,3.6-8c2.7,2.2,4.1,3.4,6.9,5.6c0.2,0.1,0.4,0.1,0.8,0.2
		c0.7,0.2,1.2,0.2,1.8,0.2c0.6,0,1.1-0.1,1.6-0.2c0.2,0,0.3-0.1,0.4-0.1c2.6-2.8,3.9-4.2,6.5-6.9c1.7,3.2,2.6,4.8,4.3,8
		c0.1,0.1,0.3,0.2,0.4,0.2c2.9-0.1,4.4-0.1,7.3-0.2c0,0.1,0,0.2-0.1,0.4c3.7-2.4,8-3.9,12.8-4.1c1.5,0,2.2,0,3.6-0.1
		c0.5,0.7,0.8,1,1.3,1.7c0.4,0.1,1.5,0.2,2.3,0.2c0.8,0,1.5-0.1,2-0.2c0.5-0.7,0.8-1,1.3-1.7c1.4,0,2.2,0,3.6,0c4,0,9.4,1,14.7,4.4
		c0.6,0.4,1.2,0.9,1.8,1.4c-0.1-1.1-0.1-1.7-0.2-2.8c2.8,0,4.3,0,7.1,0.1c0.1,0,0.2-0.1,0.4-0.1c0.2-0.1,0.4-0.2,0.6-0.2
		c1.2-2.1,1.8-3.2,3.1-5.3c2.6,1.5,3.8,2.3,6.4,3.8c0,0,0,0,0,0c0.1,0,0.2,0.1,0.3,0.1c0.3,0.1,0.7,0.3,1.2,0.4c0.1,0,0.1,0,0.2,0
		c0,0,0,0,0.1,0c0.6,0.2,2.2,0.4,3.3,0.4c1.8,0.1,4.3-0.6,4.7-0.8c2.3-1.3,3.5-1.9,5.8-3.2c1.4,2,2.1,3,3.5,5c0,0,0.1,0,0.1,0.1
		c0.3,0.2,0.8,0.4,1.1,0.5c0.2,0,0.2,0.1,0.2,0.1c3.1,0.1,4.6,0.2,7.6,0.3c1-2.7,1.6-4,2.6-6.7c3,2.1,4.5,3.1,7.5,5.2
		c0,0,0.1,0,0.1,0.1c0.2,0.1,0.5,0.2,1.1,0.4c1.2,0.3,2.3,0.5,3.7,0.5c1.7,0.1,3.7,0,4.5-0.2c2.7-2.6,4-3.9,6.7-6.4
		c1.6,3.5,2.3,5.3,3.9,8.8c0.1,0,0.2,0,0.2,0c1.7,0.1,2.5,0.2,4.2,0.3c0,0,0.1,0,0.1,0c1.4-3,2.1-4.5,3.6-7.5
		c2.7,2.6,4.1,3.9,6.9,6.5c0.2,0.1,0.4,0.2,0.8,0.3c0.7,0.2,1.2,0.3,1.8,0.4c0.5,0,1.1,0,1.6,0c0.2,0,0.3,0,0.4,0
		c2.6-2.4,3.9-3.7,6.5-6.1c1.7,3.4,2.5,5.1,4.2,8.5c0.1,0.1,0.3,0.2,0.4,0.3c0.6,0,1.1-0.2,1.6-0.7c1.6-1.9,2.4-2.8,4-4.6
		c2.2,1.7,3.3,2.5,5.5,4.2v0c0,0,0,0,0,0c0,0,0.1,0,0.1,0.1c0.2,0.1,0.6,0.2,1.2,0.5c0.6,0.2,2.2,0.6,3.3,0.7c2.6,0.2,4,0.1,5.7-0.2
		c2.5-0.5,5-0.5,7.1-0.3c3.3,0.4,6,1.2,7.7,1.8c2.4,0.9,3.2,1.3,4.1,1.4c0.1,0,0.1,0,0.2-0.1c0.4-0.1,1-0.3,1.4-0.5
		c1.1-0.5,1.6-0.8,2.7-1.4c-0.7-5.7-1-8.6-1.7-14.3c3.5,0.9,5.2,1.4,8.7,2.3c0,0,0,0,0.1,0c0.3,0.1,1.4-0.1,1.9-0.2
		c1.5-2.7,2.2-4,3.7-6.7c2.7,2.7,4,4.1,6.7,6.8c0,0,0.1,0,0.1,0.1c0.2,0.2,0.6,0.4,1,0.5c0.6,0.3,2.4,0.8,3.3,0.9
		c3.1,0.5,5.9,0.5,9,0.5c2.3,0,6.9-0.5,13.8,0.7c7.2,1.2,15.6,4.7,22.6,10.8c7,6.1,12.3,15.4,12.2,25.9c0,12.7-0.1,20.8-0.1,30.9
		c0,4,0,8.2,0,13.2c0,7.3-1.4,12.8-4.6,16.8c-1.2,1.5-2.5,2.7-4,3.7c1,1.1,2,2.3,2.9,3.6c3.3,4.6,5.5,10.6,5.5,17.3
		c0,0.6,0,1.2,0,1.7c-0.1,15.4-0.1,23.7-0.1,39.6C591.1,183.8,592,183.9,593.7,184.3z"/>
	<path class="st0" d="M190.2,108.9c0-1.4,3.4-5,3.5-5.9c0-0.4-4.1-5.4-4.1-18.1c0-16.7-0.1-25.1-0.1-41.8
		c0-13.5-11.4-21.7-28.3-19.1c-4.8,0.7-7.8,1.2-10.8,2.2c-2.7,0.9-7,3-10.7,3.7c-2.7,0.5-9.5-1.1-10.2-0.8c-0.5,0.2-4.8,5.4-8.6,6.3
		c1,7.5,1.5,11.2,2.5,18.7c1-0.2,1.5-0.3,2.4-0.5c0-2.1,0-3.1,0-5.2c0-4.3,0.3-5.3,1.6-5.5c1.3-0.2,1.6,0.2,1.6,4
		c0.1,17.7,0.1,27.3,0.1,43.6c0,1.5,0,3,0,4.6c0,11.3-5.2,17.8-5,19.1c0.1,0.6,3,3.5,3,4.9c0,1.7-2.9,4.7-2.9,5.5
		c0,0.6,5.1,6.2,5.1,16.8c0,1.9,0,3.7,0,5.4c0.1,17.1,0.1,27.2,0.1,45.9c0,3.3-0.5,4.4-2.1,4.6c-1.6,0.3-2.1-0.5-2.2-3.9
		c0-2.7,0-4.1,0-6.8c-0.7,0.1-1.1,0.2-1.9,0.3c-0.7,8.4-1.1,12.5-1.8,20.9c2.7-0.7,7.4,2.6,8,2.8c0.4,0.1,5.1-3.3,8-3.8
		c3.8-0.7,7-0.7,11-0.7c4,0,8.6-0.2,14.8-1.2c10.2-1.6,26.6-8.3,26.5-31.9c0-15.2,0-22.8-0.1-38c0-13.7,4.1-20.6,4-21.1
		C193.6,113.7,190.2,110.3,190.2,108.9z M159.2,193.7c-4.8,0.8-8.1,0.1-8.1-9.3c0-15.4-0.1-24.6-0.1-37.7c0-3.1,0-6.4,0-10.1
		c0-9.7,4.4-16.4,4.2-17c0-0.1-4.3-3.6-4.3-4.7c0-1.4,4.5-5,4.5-5.5c0,0-4.6-5.2-4.6-15.1c0-1.4,0-2.7,0-3.9
		c0-15.5-0.1-24.5-0.1-41.2c0-9,1.8-13.3,8-14.3c6.7-1,7.8,2.8,7.8,11.8c0,17.5,0.1,26.5,0.1,43.7c0,0.4,0,0.8,0,1.2
		c0,9.7-4.5,15.7-4.3,16.7c0.1,0.6,3.2,3.3,3.2,4.9c0,1.7-4,4.9-4,5.3c0,0,5.1,5.6,5.2,15.8c0,4.6,0,8.6,0,12.3
		c0,11.8,0.1,20.7,0.1,35.2C167,191.3,164.3,192.9,159.2,193.7z"/>
	<path class="st0" d="M237.7,118c-0.6,0-0.9,0.1-1.5,0.1c0,11.7-7.1,14.7-7.5,16.2c-0.1,0.4,1.5,5.9,1.5,10.2c0,5.4,0,8.2,0,13.6
		c0,8.3-1.3,9.8-5.4,10.2c-4.5,0.5-6.3-0.7-6.3-5.2c0-15.5,0-23.2-0.1-38.7c0-10.6,0-13,3.4-13.4c1.3-0.1,3,0.8,3,2.5
		c0,1.5-0.3,2.5-0.9,3.7c-0.7,1.3-1.3,3.2-1.3,5.1c0,3.4,5.3,4.7,5.4,4.4c0,0-1.3-2-1.3-3.1c0-1.3,1.5-2.6,4.1-5.1
		c1.5-1.5,2.6-3.3,2.6-5.5c0-2.6-1.5-4.4-3.7-5.7c2-1.5,3-2.2,5-3.7c-1.9-1.3-2.9-1.9-4.8-3.1c2.4-1.6,3.5-3.5,3.5-5.6
		c0-1.9-1.5-4-2.6-4.9c-2.2-1.7-3-2.7-3-3.9c0-1.1,0.9-3,0.9-3.1c0,0-5.6,2.6-5.6,5.7c0,1.5,0.4,3,0.9,4.1c0.4,0.9,0.9,1.4,0.9,2.9
		c0,1.1-1.1,2.9-2.6,3.1c-2.4,0.3-3.9-0.3-3.9-8.7c0-15,0-22.6-0.1-37.6c0-7.6,2.1-9.9,5.8-10.3c4.1-0.4,5.8,2.2,5.9,8.9
		c0,4.6,0,6.9,0,11.5c0,6.2-2.3,10.2-2.1,10.6c0.1,0.3,7.6,4.4,7.6,14.8c0.7-0.1,1-0.1,1.7-0.2c0-10.8,6.7-14.6,7.1-16.1
		c0.1-0.4-1.5-5.2-1.5-10.1c0-7.3,0-10.9,0-18.1c0-5.5,2-9.2,1.9-9.2c0,0-5.3-2.8-5.6-2.9c-0.3-0.1-3.7,2.2-5.2,2.4
		c-2.6,0.2-4.3-0.3-6.1-0.5c-1.7-0.2-3.5-0.4-6.1-0.1c-1.5,0.2-3,0.5-5,1.3c-1.9,0.8-4.3,1.6-7.8,2c-1.7,0.2-3.7,0.2-5.2,0
		c-1.5-0.2-3.1-1-3.5-0.9c-0.7,0.2-3.9,3.7-6.7,4.2c0.8,6.4,1.2,9.6,2,16c0.7-0.1,1-0.1,1.7-0.2c0-2.5,0-3.8,0-6.2
		c0.2-1.5,0.6-2.2,1.7-2.3c0.9-0.1,1.1,0.4,1.1,1.9c0,15.6,0,23.5,0.1,39.1c0,8.7-3.9,15-3.9,15.6c0,0.2,2.6,2.3,2.6,3.5
		c0,1.3-2.5,3.7-2.6,4.1c-0.1,0.4,3.9,5.9,3.9,18.2c0,14.5,0,21.8,0.1,36.3c0,2.1-0.4,2.9-1.5,3c-1.1,0.1-1.3-0.6-1.3-2.9
		c0-2.4,0-3.6,0-6c-0.8,0.1-1.2,0.1-1.9,0.2c-0.8,6.9-1.1,10.3-1.9,17.3c2.2,0.1,6.1,3.1,6.5,3.2c0.2,0,3.4-2.3,5.4-2.5
		c2.6-0.3,5.2-0.2,7.3-0.1c2.2,0.1,4.3,0.7,6.9,0.4c3.2-0.3,5-1.1,6.7-1.6c1.5-0.5,3.2-1.3,6-1.5c1.3-0.1,2.4,0,3.5,0
		c1.1,0.1,2.6,0.8,3,0.7c0.4-0.2,5.8-3.5,5.8-3.7c0,0-1.9-2.5-2-11.7c0-6.7,0-10.1,0-16.8c0-4.7,2.5-9.8,2.4-10.2
		C245.2,132.8,237.7,130.5,237.7,118z"/>
	<path class="st0" d="M300.3,27.3c-0.2,0-4.1,2.1-6.7,2.2c-1.3,0.1-2.6-0.1-3.9-0.4c-1.3-0.3-2.9-1.2-3-1.2
		c-0.2,0.1-3.9,3.4-5.9,3.5c0,6.8,0,10.2,0,17c0.9,0,1.3-0.1,2.2-0.1c0.3-2.4,0.5-3.7,0.9-6.1c0.2-1.7,0.9-2.3,1.5-2.3
		c1.3-0.1,1.3,1.1,1.1,3.3c-1.5,16.9-2.3,25.3-3.9,42.2c-0.4,4.4-3.3,9.8-3.2,11c0,0.6,2,2.7,2,4.2c0,1.5-2.1,3.4-2.2,4.1
		c0,0.3,1.3,2.6,1.1,7.1c-0.3,7.6-0.5,11.4-0.9,18.9c-0.6,0-0.9,0.1-1.5,0.1c-0.4-7.4-0.5-11.1-0.9-18.5c-0.2-3.8,1.6-7.3,1.5-7.6
		c0-0.3-2.4-2.5-2.4-3.8c0-1.3,2.6-4.1,2.6-4.5c0-0.4-4.1-5.6-4.6-15c-0.9-15.1-1.3-22.7-2.2-37.9c0-1.7,0.2-2.5,0.6-2.5
		c0.7,0,1.1,0.5,1.3,2.4c0.3,2.2,0.4,3.3,0.7,5.4c0.7,0,1-0.1,1.7-0.1c0-6.8,0-10.2,0-17c-3.3,0.2-5.9-2.8-6.3-2.8
		c-0.1,0-5.4,2.3-9.1,2.5c-1.9,0.1-3.7,0.1-5.4-0.2c-1.5-0.2-3.2-1.1-3.5-1c-0.3,0.1-3.5,4.1-6.3,4.3c1.3,6.5,2,9.8,3.3,16.4
		c0.7-0.1,1-0.1,1.7-0.1c0-2.8,0-4.2,0-7c0-0.9,0.6-1.6,1.3-1.6c0.9-0.1,1.5,0.3,1.7,3.1c1.2,18,1.9,27,3.1,44.9
		c0.4,5.5-2.9,9-2.8,9.5c0,0.2,2.6,1.7,2.6,3c0,1.3-2.1,3.5-2.2,3.8c0,0.3,4.5,3.6,5.9,20.5v0c1.3,17.4,2,26.2,3.3,43.6
		c1.5-0.1,4.5,3.4,4.8,3.4c0.1,0,3.2-2.1,6.5-2.3c1.7-0.1,3.3-0.1,4.3,0.1c1.2,0.2,2.7,1.4,2.8,1.4c0,0,3.2-4.1,5-4.2
		c2.3-21.1,3.5-31.7,5.8-52.8c0.9-8.2,5-12,5-12.3c0,0-3.3-2.5-3.3-4c0-1.5,2.8-3.5,2.8-3.9c0-0.3-2.2-5-1.3-13.4
		c1.5-16.5,2.3-24.7,3.9-41.2c0.2-1.3,0.4-1.9,1.1-1.9c0.6,0,1.1,0.5,1.1,1.8c0,2.3,0,3.5,0,5.9c0.8,0,1.2,0,2-0.1
		c0.9-6.6,1.4-9.9,2.4-16.5C304.6,30.5,300.7,27.3,300.3,27.3z"/>
	<path class="st0" d="M358.3,77.2c0-13.8,0-20.6,0-34.4c0-13.4-14.9-17.8-17.4-16.6c-0.7,0.4-3.7,1.9-6.9,2c-1.5,0-3.3-0.1-4.6-0.5
		c-1.1-0.3-2.3-1.1-2.6-1.3c-4.5-2.2-18,9-18,19.4h0c0,14.1,0,21.2,0,35.3c0,10.4-4,14.1-3.9,14.5c0,0.1,2.8,2.2,2.8,3.5
		c0,1.3-2.7,3.3-2.8,3.7c0,0.3,3.9,4.8,3.9,12.5c0,15.9,0,23.9,0,39.9c0,11.2,15.6,17.7,18.2,16.1c0.9-0.5,3.5-1.9,6.5-2
		c1.5,0,2.9,0,4.1,0.3c1,0.2,2.1,1.2,2.6,1.5c3,1.4,18-6.1,18-23.5c0-11.9,0-17.9,0-29.9c0-10.8,3.9-16.2,3.9-16.6
		c0-0.1-2.8-2.5-2.8-3.8c0-1.3,2.8-3.8,2.8-4.1C362.2,93.1,358.3,89.9,358.3,77.2z M333.6,161.8c-4.1,0.1-6.1-1.8-6.1-7.1
		c0-14,0-21,0-35c0-9.3,3.5-16.6,3.5-17.3c0-0.2-2.8-2.8-2.8-4.3c0-1.5,2.8-3.8,2.8-4.2c0-0.1-3.5-3.9-3.5-14.9h0
		c0-14.8,0-22.2,0-37c0-4.7,1.7-6.7,6.3-6.7c4.6-0.1,5.9,2,5.9,6.3c0,15,0,22.5,0,37.4c0,7.2-3.7,14.4-3.7,15c0,0.1,2.8,2.6,2.8,3.9
		c0,1.3-2.8,3.5-2.8,3.8c0,0.3,3.7,4.3,3.7,16.8c0,14.4,0,21.5,0,35.9C339.7,160.2,337.5,161.8,333.6,161.8z"/>
	<path class="st0" d="M415.4,131.7c-0.1-0.6-7.4-5.3-7.4-15.8c-0.6,0-0.9,0-1.5-0.1c0,11.2-6.1,13.6-6.7,15
		c-0.2,0.3,1.9,5.2,1.9,13.5c0,3.8,0,5.7,0,9.4c0,5.3-1.1,8.3-7.2,8.1c-6.1-0.2-6.7-3.2-6.7-8.5c0-15.2,0-22.8,0-38
		c0-8.5,3.3-13.6,3.3-14.1c0-0.1-2.6-2.2-2.6-3.7c0-1.5,2.6-3.6,2.6-3.9c0-0.1-3.3-5-3.2-15.2c0-14.8,0-22.2,0-37
		c0-2.5,0.4-3.4,1.7-3.4c1.3,0,1.7,0.8,1.9,2.3c0,2,0,3.1,0,5.1c0.6,0,0.9,0,1.5,0c0.9-6.2,1.3-9.4,2.2-15.6
		c-2.6-0.1-6.3-3.1-6.9-3.2c-0.4-0.1-4.8,1.7-8.5,1.7c-1.7,0-3.7-0.3-5.2-0.7c-1.7-0.4-3.5-1.4-3.7-1.4c-0.4,0.1-4.3,3-6.5,2.9
		c0.5,6.2,0.8,9.3,1.3,15.5c0.6,0,0.9,0,1.5,0c0-1.7,0-2.6,0-4.3c0-2.6,0.4-3.4,1.3-3.4c0.9,0,1.5,0.6,1.5,3.2h0
		c0,15.1,0,22.7,0,37.8c0,6.8-4.2,14.6-4.1,15.1c0,0.1,2.6,2.7,2.6,4c0,0.6-0.2,1.3-0.6,1.9c-0.4,0.6-2.2,1.5-2.2,1.7
		c0,0.1,4.3,5.5,4.3,14.2c0,16.7,0,25.1,0,41.8c0,2.1-0.4,2.8-1.5,2.8c-1.1,0-1.3-0.8-1.3-2.1c0-2.2,0-3.3,0-5.5c-0.7,0-1,0-1.7,0
		c-0.7,6.1-1,9.2-1.7,15.3c2.8,0,6.7,3.9,7.1,4.1c0.4,0.1,3.5-1.8,6.1-1.8c3.5,0.1,6.3,0.7,9.1,1.3c2.6,0.6,5.2,0.9,8.2,1
		c1.5,0.1,3.1-0.4,4.5-0.6c1.4-0.2,2.8-0.5,4.1-0.4c0.9,0,1.8,0.2,2.8,0.5c0.9,0.2,2.3,1.1,2.6,1.1c0.7-0.2,6.5-2.9,6.7-3.3
		c0,0-2.2-4.8-2.1-13.5c0-4.3,0-6.5,0-10.8C413,136.5,415.5,132.2,415.4,131.7z"/>
	<path class="st0" d="M450.6,31.9c-1.3-0.1-2.6-0.4-3.9-0.9c-1.3-0.5-2.9-1.6-3-1.5c-0.2,0-3.9,2.9-5.9,2.8c0,6.8,0,10.2,0,17
		c0.9,0.1,1.3,0.1,2.2,0.2c0.4-2.4,0.5-3.6,0.9-6c0.2-1.7,0.9-2.2,1.5-2.2c1.3,0.1,1.3,1.2,1.1,3.5c-1.6,16.7-2.4,25-4,41.7
		c-0.4,4.3-3.2,9.5-3.3,10.6c0,0.6,1.9,3,1.9,4.5c0,1.5-2.1,3.2-2.2,3.8c-0.1,0.3,1.3,2.7,1.1,7.3c-0.4,7.5-0.5,11.3-0.9,18.8
		c-0.6,0-0.9-0.1-1.5-0.1c-0.3-7.4-0.5-11.1-0.8-18.6c-0.2-3.8,1.5-7.1,1.5-7.5c0-0.3-2.4-2.8-2.4-4.1c0-1.3,2.6-3.8,2.6-4.2
		c0-0.4-4.1-6.1-4.5-15.6c-0.8-15.2-1.3-22.9-2.1-38.1c0-1.7,0.2-2.4,0.7-2.4c0.7,0,1.1,0.6,1.3,2.5c0.3,2.2,0.4,3.3,0.6,5.5
		c0.7,0,1,0.1,1.7,0.1c0-6.8,0-10.2,0-17c-3.3-0.2-5.9-3.5-6.3-3.6c-0.1,0-5.4,1.6-9.1,1.4c-2-0.1-3.7-0.4-5.4-0.8
		c-1.5-0.4-3.3-1.6-3.5-1.5c-0.2,0.1-3.5,3.6-6.3,3.5c1.3,6.7,1.9,10.1,3.2,16.8c0.7,0,1,0.1,1.7,0.1c0-2.8,0-4.2,0-7
		c0-0.9,0.6-1.5,1.3-1.5c0.9,0,1.5,0.5,1.7,3.3c1.2,18.1,1.8,27.2,3,45.3c0.4,5.5-2.9,8.7-2.8,9.1c0,0.2,2.6,2,2.6,3.3
		c0,1.3-2.1,3.2-2.2,3.5c0,0.2,4.5,4.2,5.8,21.3h0c1.3,17.6,1.9,26.4,3.2,44c1.5,0.1,4.5,4,4.8,4c0.1,0,3.2-1.7,6.5-1.5
		c1.7,0.1,3.3,0.3,4.3,0.7c1.3,0.4,2.7,1.7,2.8,1.7c0,0,3.2-3.7,5-3.6c2.4-20.8,3.5-31.3,5.9-52.1c0.9-8.1,5-11.4,5-11.7
		c0,0-3.2-2.9-3.2-4.4c0-1.5,2.8-3.2,2.8-3.6c0-0.3-2.2-5.3-1.3-13.5c1.6-16.3,2.4-24.4,4-40.7c0.2-1.3,0.4-1.9,1.1-1.8
		c0.6,0.1,1.1,0.7,1.1,2c0,2.4,0,3.5,0,5.9c0.8,0.1,1.2,0.1,1.9,0.2c1-6.5,1.4-9.7,2.4-16.2c-1.7-0.2-5.6-3.8-6.1-3.9
		C457.2,30.6,453.2,32.1,450.6,31.9z"/>
	<path class="st0" d="M513,165.8c0-6.7,0-10.1,0-16.8c0-4.7,2.5-9.3,2.4-9.7c-0.1-0.7-7.5-4.4-7.5-16.8c-0.6-0.1-0.9-0.1-1.5-0.2
		c0,11.7-7.1,13.4-7.6,14.6c-0.1,0.3,1.5,6.2,1.5,10.6c0,5.4,0,8.2,0,13.6c0,8.3-1.3,9.5-5.4,9c-4.5-0.5-6.2-2-6.2-6.6
		c0-15.5,0-23.2,0.1-38.7c0-10.6,0-13,3.5-12.7c1.3,0.1,3,1.5,3,3.2c0,1.5-0.3,2.4-0.9,3.5c-0.7,1.2-1.3,2.9-1.3,4.8
		c0,3.4,5.3,5.8,5.4,5.5c0,0-1.3-2.2-1.3-3.4c0-1.3,1.6-2.3,4.1-4.2c1.5-1.2,2.6-2.7,2.6-5c0-2.6-1.5-4.7-3.7-6.5c2-1,3-1.6,5-2.6
		c-1.9-1.7-2.8-2.5-4.7-4.2c2.4-1,3.5-2.8,3.5-4.9c0-1.9-1.5-4.3-2.6-5.4c-2.2-2.2-3-3.4-3-4.5c0-1.1,0.9-2.8,0.9-2.9
		c0-0.1-5.6,1.4-5.6,4.5c0,1.5,0.4,3.1,0.9,4.3c0.4,1,0.9,1.6,0.9,3.1c0,1.1-1.1,2.7-2.6,2.5c-2.4-0.3-3.9-1.2-3.9-9.5
		c0-15,0-22.6,0.1-37.6c0-7.6,2.2-9.4,5.8-9c4.1,0.5,5.8,3.5,5.8,10.1c0,4.6,0,6.9,0,11.5c0,6.2-2.2,9.7-2.2,10.1
		c0.1,0.6,7.6,6,7.5,16.4c0.7,0.1,1,0.1,1.7,0.2c0-10.8,6.6-13.4,7.1-14.6c0.1-0.3-1.5-5.5-1.5-10.4c0-7.3,0-10.9,0-18.1
		c0-5.5,2-8.7,2-8.8c0,0-5.2-4-5.6-4.1c-0.3-0.1-3.7,1.4-5.2,1.2c-2.6-0.3-4.3-1.3-6-1.9c-1.7-0.6-3.5-1.2-6.1-1.5
		c-1.5-0.2-3-0.2-5,0.2c-1.9,0.3-4.3,0.7-7.8,0.3c-1.7-0.2-3.7-0.6-5.2-1.1c-1.5-0.5-3.1-1.7-3.5-1.7c-0.6,0.1-3.9,2.8-6.7,2.8
		c0.8,6.6,1.2,9.9,1.9,16.4c0.7,0.1,1,0.1,1.7,0.2c0-2.5,0-3.7,0-6.2c0.2-1.5,0.7-2,1.7-1.9c0.9,0.1,1.1,0.7,1.1,2.2
		c0,15.6,0,23.5-0.1,39.1c0,8.7-3.9,14.2-3.9,14.8c0,0.3,2.6,2.9,2.6,4c0,1.3-2.5,3.2-2.6,3.5c-0.1,0.3,3.9,6.8,3.9,19.1
		c0,14.5,0,21.8-0.1,36.3c0,2.1-0.4,2.8-1.5,2.7c-1.1-0.1-1.3-0.9-1.3-3.2c0-2.4,0-3.6,0-6c-0.8-0.1-1.2-0.1-1.9-0.2
		c-0.8,6.7-1.2,10.1-2,16.8c2.2,0.6,6,4.5,6.5,4.6c0.3,0.1,3.5-1.6,5.4-1.4c2.6,0.3,5.2,0.9,7.3,1.5c2.2,0.6,4.3,1.6,6.9,1.9
		c3.2,0.4,5,0,6.7-0.2c1.5-0.2,3.2-0.6,6-0.2c1.3,0.2,2.4,0.5,3.4,0.8c1.1,0.3,2.6,1.4,3,1.3c0.3-0.1,5.7-2.3,5.8-2.5
		C514.9,178,513,175.1,513,165.8z"/>
	<path class="st0" d="M585.6,188.6c0,2.7,0,4.1,0,6.9c0,1.4-0.5,1.8-1.3,1.6c-1.1-0.2-1.6-1.5-1.6-3.6c0.1-20.1,0.1-30.6,0.2-49.7
		c0-1,0-2,0-3c0-11.3-13.2-21.1-13.1-21.8c0,0,13.1-6.1,13.2-19.6c0-4.4,0-8.3,0-11.9c0-10.7,0.1-19,0.1-32.2
		c0.1-17.7-16.5-27.6-28.1-29.5c-6.2-1-9.7-0.6-12.6-0.6c-3.2,0-6.5,0-10.2-0.6c-1.6-0.2-3.8-0.8-5.4-1.5c-1.6-0.7-3.3-2.2-3.5-2.1
		c-0.2,0-5.7,3-8.9,2.1c1.1,8.8,1.6,13.3,2.6,22.1c0.9,0.1,1.3,0.2,2.2,0.3c0-2.6,0-4,0-6.6c0-3.3,0.6-3.7,1.6-3.6
		c0.8,0.1,1.3,0.4,1.3,3.7c0,15.9-0.1,23.8-0.1,39.7c0,15.1-5.7,25.6-5.7,26.6c0,0.2,3.8,3.8,3.8,5.5c0,0.7-0.3,1.4-0.8,2
		c-0.5,0.6-2.4,1.5-2.4,1.8c-0.2,0.8,5.1,11.6,5.1,23.1c0,17.7-0.1,26.5-0.1,44.2c0,3.5-0.5,3.9-1.6,3.8c-1.6-0.2-1.9-1.9-1.9-3.6
		c0-2.6,0-3.8,0-6.4c-0.9-0.1-1.3-0.2-2.2-0.3c-1.3,8.3-2,12.5-3.3,20.8c2.4,0.3,8.3,5.5,8.9,5.7c0.5,0.1,7-1.4,10.5-0.9
		c1.9,0.3,4,0.8,6.2,1.6c2.1,0.8,4.6,2.5,5.1,2.4c0.8-0.1,6.2-3,9.4-2.5c-1-8.2-1.6-12.3-2.6-20.5c-0.9-0.1-1.3-0.2-2.1-0.3
		c0,2.5,0,3.8,0,6.4c0,2.1-0.3,2.3-1.1,2.2c-2.1-0.3-2.9-3.3-2.9-13.4c0-13.6,0.1-22.1,0.1-33.1c0-3.7,0-7.7,0-12.2
		c0-8.3,2.2-9.6,7.8-8.7c5.9,1,8.8,2.9,8.8,11.6c0,3.3,0,6.3,0,9.3c-0.1,21-0.1,34.3-0.2,57.8c2.9,0.5,6.8,7.4,7.5,7.7
		c0.3,0.1,5.1-0.5,7.2-0.1c1.1,0.2,2.4,0.4,3.7,0.9c1.3,0.5,3,1.8,3.2,1.8c0.2,0,5.6-3.2,8-2.7c-1-8-1.6-12.1-2.6-20.1
		C586.9,188.9,586.5,188.8,585.6,188.6z M552.4,110.9c-5.6-0.9-8.1-3.2-8-9.8h0c0-5,0-9.4,0-13.6c0-14.2,0.1-24.7,0.1-41.9
		c0-5.9,3-8.5,7.8-7.7c4.3,0.7,8.9,3.4,8.8,10.7c0,16-0.1,25.9-0.1,39c0,4.1,0,8.5,0,13.4C561,110.5,558.3,111.9,552.4,110.9z"/>
</g>
<g>
	<path class="st0" d="M225.7,217.8c-1.7-1.5-4-2.3-6.8-2.3h-10.4V232h11c2.4,0,4.5-0.7,6.2-2.2c1.8-1.6,2.7-3.5,2.7-5.9
		C228.2,221.4,227.4,219.3,225.7,217.8z M223.6,228c-1.1,1.1-2.4,1.6-4,1.6h-8.5V218h7.9c1.8,0,3.3,0.5,4.5,1.6
		c1.1,1.1,1.7,2.5,1.7,4.3C225.2,225.6,224.7,226.9,223.6,228z"/>
</g>
<rect x="261" y="215.5" class="st0" width="2.7" height="16.5"/>
<path class="st0" d="M306.7,225.7h7.7c-1.1,2.8-3.5,4.3-7.1,4.3c-2.3,0-4.2-0.6-5.6-1.7c-1.4-1.2-2.1-2.7-2.1-4.5
	c0-1.9,0.8-3.5,2.5-4.7c1.4-1,3.2-1.6,5.3-1.6c2.7,0,4.9,0.9,6.6,2.8l2.6-1.3c-2.3-2.7-5.3-4-8.9-4c-3,0-5.5,0.7-7.5,2.2
	c-2.2,1.7-3.4,3.9-3.4,6.5c0,2.7,1.1,4.9,3.3,6.6c1.9,1.5,4.4,2.2,7.3,2.2c3.2,0,5.7-0.8,7.7-2.5c1.9-1.6,2.9-3.8,2.9-6.5v-0.2
	h-11.1V225.7z"/>
<rect x="350.5" y="215.5" class="st0" width="2.7" height="16.5"/>
<polygon class="st0" points="384.9,218 392.8,218 392.8,232 395.6,232 395.6,218 403.4,218 403.4,215.5 384.9,215.5 "/>
<g>
	<path class="st0" d="M442.7,215.5h-3.4l-8.7,16.5h3l1.9-3.7h11.1l1.9,3.7h3L442.7,215.5z M436.8,225.9l4.3-8l4.2,8H436.8z"/>
</g>
<polygon class="st0" points="485.8,215.5 483.1,215.5 483.1,232 498.6,232 498.6,229.6 485.8,229.6 "/>
</svg>
