<?xml version="1.0" encoding="utf-8"?>
<!-- Generator: Adobe Illustrator 16.0.0, SVG Export Plug-In . SVG Version: 6.00 Build 0)  -->
<!DOCTYPE svg PUBLIC "-//W3C//DTD SVG 1.1//EN" "http://www.w3.org/Graphics/SVG/1.1/DTD/svg11.dtd">
<svg version="1.1" id="Layer_4" xmlns="http://www.w3.org/2000/svg" xmlns:xlink="http://www.w3.org/1999/xlink" x="0px" y="0px"
	 width="216px" height="274px" viewBox="-307.64 0 216 274" enable-background="new -307.64 0 216 274" xml:space="preserve">
<g>
	<path fill="#FFFFFF" d="M-133.443,239.187c-2.597,0-4.666-2.072-4.666-4.669c0-2.581,2.069-4.653,4.666-4.653
		c2.582,0,4.655,2.072,4.655,4.653C-128.788,237.115-130.861,239.187-133.443,239.187z M-133.443,240.268
		c3.154,0,5.735-2.583,5.735-5.75c0-3.152-2.581-5.734-5.735-5.734c-3.182,0-5.749,2.582-5.749,5.734
		C-139.192,237.685-136.625,240.268-133.443,240.268z M-132.092,235.029c1.096-0.074,1.682-0.54,1.682-1.681
		c0-0.645-0.165-1.247-0.72-1.606c-0.465-0.27-1.157-0.285-1.683-0.285h-3v6.184h1.214v-2.611h1.216l1.382,2.611h1.412
		L-132.092,235.029L-132.092,235.029z M-134.598,234.098v-1.756h1.503c0.599,0,1.484,0,1.484,0.824c0,0.781-0.48,0.948-1.17,0.932
		H-134.598"/>
	<g>
		<path fill="none" d="M-189.887,188.058c0.522-1.87,0.775-4.303,0.888-6.655c-3.499,3.117-5.191,6.975-6.101,10.615
			c-0.262,1.049-0.371,1.924-0.391,2.665C-193.294,193.194-190.687,190.91-189.887,188.058z"/>
		<path fill="#B3B3B3" d="M-177.589,203.902c7.716-6.255,8.757-9.589,8.967-19.181c0.207-9.591-8.756-9.798-15.637-6.463
			c-1.875,0.908-3.431,1.977-4.741,3.145c-0.112,2.353-0.365,4.785-0.888,6.655c-0.8,2.852-3.406,5.136-5.604,6.625
			c-0.072,2.799,1.225,3.59,1.225,3.59l-11.618,6.89l14.329,8.331l0.838,2.357l0,0l-0.838-2.358
			C-191.555,213.493-185.302,210.157-177.589,203.902z"/>
		<polygon fill="#E6E6E6" points="-190.718,215.851 -191.555,213.494 -205.885,205.163 -206.306,205.413 -208.321,206.608 
			-203.857,220.166 -184.884,232.257 		"/>
		<path fill="#B3B3B3" d="M-159.813,203.121l2.45-1.095c1.852-0.741,8.017-2.723,12.694-0.624l-9.922-4.473
			C-157.431,200.898-159.813,203.121-159.813,203.121z"/>
		<path fill="#B3B3B3" d="M-143.629,201.871l-0.973-0.439c0.295,0.136,0.581,0.294,0.863,0.464L-143.629,201.871z"/>
		<path fill="#B3B3B3" d="M-182.8,244.766c0,0-0.418-0.626,2.294,2.502c2.71,3.127,7.714,1.461,14.386-4.379
			c6.67-5.837,9.121-9.355,7.714-17.096c-1.495-8.227-8.965-6.672-14.179-2.709c-2.193,1.667-4.715,3.553-6.905,5.181
			c-1.127,1.064-2.486,2.195-4.143,3.367c-5.47,3.868-7.78,4.743-10.101,4.44L-182.8,244.766L-182.8,244.766z"/>
		<polygon fill="#E6E6E6" points="-182.801,244.767 -193.733,236.073 -200.104,231.006 -224.913,249.145 -210.112,265.408 
			-210.111,265.408 -210.112,265.407 -184.731,246.226 		"/>
		<path fill="#FFFFFF" d="M-144.669,201.402l0.067,0.029C-144.624,201.421-144.646,201.412-144.669,201.402z"/>
		<polygon fill="#FFFFFF" points="-205.885,205.163 -207.353,204.309 -206.306,205.413 		"/>
		
			<rect x="-213.327" y="255.816" transform="matrix(0.7978 -0.6029 0.6029 0.7978 -194.1556 -67.3033)" fill="#FFFFFF" width="31.813" height="0.001"/>
		
			<rect x="-184.975" y="245.496" transform="matrix(0.7978 -0.6029 0.6029 0.7978 -185.1651 -61.1567)" fill="#FFFFFF" width="2.42" height="0.001"/>
	</g>
</g>
<g>
	<polygon fill="#B3B3B3" points="-237.526,106.03 -237.419,106.143 -237.524,106.021 	"/>
	<polygon fill="#B3B3B3" points="-235.024,89.768 -237.524,106.015 -224.723,99.345 	"/>
	<polygon fill="#B3B3B3" points="-228.769,45.984 -232.499,70.232 -207.818,61.609 -207.7,61.688 -207.431,60.21 	"/>
	<polygon fill="#E6E6E6" points="-167.476,88.504 -167.476,88.504 -167.476,88.505 	"/>
	<polygon fill="#E6E6E6" points="-207.7,61.688 -207.818,61.609 -232.499,70.232 -232.522,70.378 -212.305,87.018 -191.873,103.835 
		-191.87,103.828 -167.476,88.504 	"/>
	<polygon fill="#E6E6E6" points="-181.549,126.345 -191.175,117.253 -199.364,122.897 -199.372,122.917 -222.203,101.688 
		-224.723,99.345 -237.524,106.015 -237.524,106.021 -237.419,106.143 -236.862,106.734 -202.505,143.239 -202.502,143.233 
		-181.55,126.345 -181.551,126.347 	"/>
	<polygon fill="#FFFFFF" points="-134.639,39.092 -134.638,39.092 -220.64,0 -250.975,2.502 -161.221,50.351 -134.639,39.092 	"/>
	<polygon fill="#B3B3B3" points="-175.284,81.618 -150.276,68.176 -134.639,39.092 -161.221,50.351 -161.225,50.359 
		-161.219,50.363 	"/>
	<polygon fill="#B3B3B3" points="-134.639,39.092 -161.221,50.351 -134.639,39.092 	"/>
	<polygon fill="#B3B3B3" points="-202.502,143.233 -202.505,143.239 -202.499,143.246 -203.479,145.376 -207.805,154.792 
		-187.804,139.167 -181.551,126.347 -181.55,126.345 	"/>
	<polygon fill="#B3B3B3" points="-167.476,88.504 -167.476,88.504 -167.476,88.504 	"/>
	<polygon fill="#B3B3B3" points="-191.87,103.828 -191.873,103.835 -191.867,103.84 -192.304,104.953 -195.526,113.144 
		-199.364,122.897 -191.175,117.253 -176.233,106.955 -167.476,88.505 -167.476,88.504 -167.476,88.504 	"/>
	<polygon fill="#FFFFFF" points="-236.897,106.747 -236.862,106.734 -237.419,106.143 	"/>
	<polygon fill="#FFFFFF" points="-237.528,106.018 -237.524,106.021 -237.524,106.015 	"/>
	<polygon fill="#FFFFFF" points="-161.225,50.359 -250.973,2.515 -250.973,2.514 -255.351,102.277 -207.816,154.816 
		-207.805,154.792 -207.819,154.803 -203.484,145.371 -202.505,143.239 -236.862,106.734 -236.897,106.747 -237.419,106.143 
		-237.526,106.03 -237.524,106.021 -237.528,106.018 -237.524,106.015 -235.024,89.768 -224.723,99.345 -222.203,101.688 
		-199.372,122.917 -199.364,122.897 -199.375,122.905 -195.532,113.138 -192.315,104.96 -191.873,103.835 -212.305,87.018 
		-232.522,70.378 -232.499,70.232 -228.769,45.984 -207.431,60.21 -175.292,81.636 -175.284,81.618 -175.295,81.624 	"/>
	<polygon fill="#FFFFFF" points="-175.284,81.618 -161.219,50.363 -161.225,50.359 -175.295,81.624 	"/>
	<polygon fill="#FFFFFF" points="-203.484,145.371 -207.819,154.803 -207.805,154.792 -203.479,145.376 	"/>
	<polygon fill="#FFFFFF" points="-203.479,145.376 -202.499,143.246 -202.505,143.239 -203.484,145.371 	"/>
	<polygon fill="#FFFFFF" points="-195.532,113.138 -195.526,113.144 -192.304,104.953 -192.315,104.96 	"/>
	<polygon fill="#FFFFFF" points="-192.304,104.953 -191.867,103.84 -191.873,103.835 -192.315,104.96 	"/>
	<polygon fill="#FFFFFF" points="-199.375,122.905 -199.364,122.897 -195.526,113.144 -195.532,113.138 	"/>
</g>
<g>
	<path fill="#FFFFFF" d="M-262.035,55.818l-8.165,5.155l-1.75-1.028l4.713-2.967l-1.525-0.889l-4.417,2.771l-1.74-1.023l4.417-2.762
		l-1.517-0.884l-4.761,2.969l-1.729-1.018l8.218-5.107L-262.035,55.818"/>
	<path fill="#FFFFFF" d="M-271.834,62.243l-3.092,2.58l-7.158-3.09l-3.43,2.823l-2.297-0.999l6.545-5.361L-271.834,62.243"/>
	<path fill="#FFFFFF" d="M-279.357,68.686l-5.788,6.547l-2.231-0.686l3.352-3.774l-1.939-0.593l-3.148,3.53l-2.222-0.682
		l3.157-3.523l-1.932-0.59l-3.412,3.792l-2.214-0.681l5.898-6.522L-279.357,68.686"/>
	<path fill="#FFFFFF" d="M-293.896,81.718c1.477,0.172,2.346-0.107,2.833-0.958c0.701-1.22-0.693-1.924-2.608-2.265
		c-1.915-0.34-3.781-0.219-4.494,0.996c-0.557,0.952-0.143,1.541,1.328,1.837l-1.882,3.233c-1.033-0.208-2.003-0.463-2.526-1.205
		c-0.753-1.069-0.429-2.641,0.517-4.242c2.19-3.712,5.267-4.505,8.933-3.855c2.719,0.482,5.6,1.859,3.224,6.025
		c-1.073,1.883-2.372,3.103-3.716,3.589c-0.964,0.348-1.764,0.378-3.478,0.08L-293.896,81.718"/>
	<path fill="#FFFFFF" d="M-295.435,88.907l0.773-2.587l2.981,0.194l-2.524,8.571l-3.018-0.198l0.787-2.633l-9.316-0.607l1.046-3.342
		L-295.435,88.907"/>
	<path fill="#FFFFFF" d="M-297.135,99.846l-0.056,1.262c-0.037,0.843-0.449,1.385-1.577,1.432c-1.201,0.049-1.527-0.508-1.492-1.25
		l0.063-1.32L-297.135,99.846L-297.135,99.846z M-307.07,96.825l-0.2,3.437l4.612-0.189l-0.055,1.046
		c-0.062,1.187-0.281,1.345-1.862,1.568l-2.862,0.404l-0.204,3.5l4.323-0.628c1.303-0.193,1.779-0.879,1.855-1.688l0.177-0.008
		c0.232,1.024,1.26,1.743,2.945,1.672c2.838-0.116,3.587-1.551,3.678-3.81l0.232-5.822L-307.07,96.825"/>
	<path fill="#FFFFFF" d="M-299.276,115.601c-2.633,0.439-4.046-0.201-4.322-1.351c-0.275-1.146,0.728-2.18,3.346-2.615
		c2.615-0.432,4.025,0.2,4.312,1.341C-295.652,114.123-296.648,115.164-299.276,115.601L-299.276,115.601z M-298.394,119.192
		c3.854-0.646,6.392-2.642,5.354-6.697c-0.542-2.119-1.346-3.037-2.405-3.675c-1.275-0.767-3.208-1.105-5.67-0.698
		c-3.804,0.627-6.349,2.579-5.397,6.614c0.506,2.144,1.74,3.444,3.297,4.127C-302.029,119.389-300.378,119.525-298.394,119.192"/>
	<path fill="#FFFFFF" d="M-291.377,119.462l2.9,4.849l-6.677,5.284l0.02,0.034l8.276-2.609l1.752,2.931l-12.41,3.931l-2.786-4.825
		l7.123-5.601l-0.013-0.021l-8.771,2.744l-1.674-2.901L-291.377,119.462"/>
	<path fill="#FFFFFF" d="M-283.399,131.581l2.791,3.14l-11.635,5.146l-2.757-3.185L-283.399,131.581"/>
	<path fill="#FFFFFF" d="M-276.523,144.256c1.217-0.847,1.366-1.553,0.423-2.332c-1.354-1.117-3.31-0.621-5.077,0.411
		c-1.772,1.036-2.825,2.3-1.473,3.429c1.055,0.884,2.211,0.942,3.623,0.161l3.586,2.986c-0.986,0.551-2.002,1.038-3.455,0.97
		c-2.097-0.102-4.241-1.177-6.022-2.672c-4.129-3.471-3.268-5.886,0.143-7.863c2.513-1.459,6.447-2.513,11.071,1.287
		c2.087,1.717,3.048,3.21,2.9,4.332c-0.109,0.803-0.582,1.331-2.13,2.266L-276.523,144.256"/>
	<path fill="#FFFFFF" d="M-260.928,149.693l10.508,5.025l-1.703,1.687l-6.068-2.912l-1.503,1.471l5.692,2.737l-1.719,1.7
		l-5.698-2.749l-1.516,1.481l6.148,2.977l-1.732,1.716l-10.626-5.163L-260.928,149.693"/>
	<path fill="#FFFFFF" d="M-232.665,160.484l-3.779-1.155l-3.944,6.025l-0.052-0.016l-0.24-7.307l-7.625-2.33v-0.001l-6.021,8.936
		l4.56,1.415l4.271-6.407l0.034,0.01l0.204,7.797l4.642,1.44C-238.481,165.96-235.864,163.099-232.665,160.484z"/>
	<g>
		<polygon fill="#FFFFFF" points="-156.077,163.877 -152.154,162.607 -156.225,160.122 		"/>
		<path fill="#FFFFFF" d="M-189.326,165.69l-2.12,0.141l0.341,2.375l2.223-0.149c1.244-0.083,2.161-0.422,2.022-1.35
			C-186.99,165.834-187.914,165.593-189.326,165.69z"/>
		<path fill="#FFFFFF" d="M-143.738,201.895c-0.282-0.17-0.568-0.328-0.863-0.464l-0.067-0.029
			c-4.678-2.099-10.843-0.117-12.694,0.624l-2.45,1.095c0,0,2.382-2.223,5.223-6.191c4.741-6.622,10.756-18.112,9.126-32.266
			l-2.162,0.704l-1.948-1.196l-6.402,2.081l0.067,1.814l-5.152,1.678l0.207-11.011l6.453-2.071l8.346,4.566
			c-2.479-10.959-10.162-15.375-19.573-15.94c-7.191-0.432-15.38,1.369-23.007,4.197c-6.847,2.539-15.341,7.498-23.115,14.142
			l11.41,0.582l-0.211,2.068l-7.624-0.391l-0.203,1.817l7.162,0.368l-0.214,2.089l-7.181-0.369l-0.207,1.837l7.76,0.399l-0.215,2.11
			l-13.465-0.694l0.96-8.03c-12.372,11.247-22.303,26.77-19.682,43.491l3.336,10.633l21.805-12.931l2.015-1.195l-1.047-1.104
			l1.469,0.854l11.618-6.89c0,0-1.297-0.791-1.225-3.59c0.02-0.741,0.129-1.616,0.391-2.665c0.91-3.641,2.602-7.498,6.101-10.615
			c1.311-1.168,2.866-2.236,4.741-3.145c6.881-3.335,15.844-3.128,15.637,6.463c-0.21,9.592-1.251,12.926-8.967,19.181
			c-7.713,6.255-13.967,9.591-13.967,9.591l0.838,2.358l5.834,16.405c0,0,2.381-1.751,5.394-3.991
			c2.19-1.628,4.712-3.514,6.905-5.181c5.214-3.963,12.684-5.518,14.179,2.709c1.407,7.74-1.044,11.259-7.714,17.096
			c-6.672,5.84-11.676,7.506-14.386,4.379c-2.712-3.128-2.294-2.502-2.294-2.502l-0.001,0.001h0.001l-1.931,1.46l-25.38,19.181
			c0.004,0.007,2.298,3.964,7.505,6.464c5.213,2.502,11.675,5.629,32.316-8.967c20.641-14.594,31.065-32.314,31.273-49.62
			C-138.94,206.925-140.977,203.557-143.738,201.895z M-185.524,173.424l-0.815-2.195c-0.451-1.208-0.726-1.355-2.724-1.222
			l-1.767,0.119l0.521,3.622l-5.872,0.398l-1.345-9.909l9.796-0.655c3.748-0.251,6.152,0.12,6.494,2.291
			c0.202,1.296-0.932,2.201-2.623,2.535l0.023,0.137c1.345-0.062,2.508,0.205,2.896,1.191l1.274,3.29L-185.524,173.424z
			 M-166.508,170.648l-5.641,1.071l-2.934-7.255l-4.369,0.823l-0.923-2.316l14.272-2.678l0.961,2.298l-4.348,0.819L-166.508,170.648
			z"/>
		<path fill="#FFFFFF" d="M-145.465,164.664l3.562-1.16l-4.154-2.274c0.234,1.037,0.439,2.111,0.577,3.269
			C-145.472,164.553-145.471,164.608-145.465,164.664z"/>
	</g>
	<path fill="#FFFFFF" d="M-139.836,150.627l5.992-3.797l9.645,2.702l0.04-0.025l-6.396-4.758l3.505-2.222l9.578,7.077l-5.745,3.704
		l-10.293-2.898l-0.027,0.018l6.827,5.135l-3.569,2.301L-139.836,150.627"/>
	<path fill="#FFFFFF" d="M-125.11,141.273l4.543-4.724l9.105,2.08l0.021-0.021l-6.209-5.09l4.467-4.645l11.356,5.313l-2.689,2.863
		l-8.576-4.034l-0.019,0.02l6.674,6.059l-2.842,3.026l-10.431-2.184l-0.03,0.03l8.622,4.111l-2.528,2.692L-125.11,141.273"/>
	<path fill="#FFFFFF" d="M-112.385,127.006l4.253-7.651l2.594,0.763l-2.424,4.389l2.286,0.677l2.26-4.123l2.602,0.767l-2.247,4.13
		l2.293,0.68l2.409-4.458l2.611,0.768l-4.164,7.772L-112.385,127.006"/>
	<path fill="#FFFFFF" d="M-107.33,117.854l1.28-5.128l9.237-1.372l0.007-0.034l-8.544-1.397l0.745-2.983l12.707,2.069l-1.134,4.913
		l-9.838,1.467l-0.006,0.022l9.152,1.507l-0.708,3.07L-107.33,117.854"/>
	<path fill="#FFFFFF" d="M-101.596,103.253l0.089,2.727l-3.122-0.146l-0.253-8.864l3.084,0.14l0.087,2.677l9.609,0.443l0.164,3.47
		L-101.596,103.253"/>
	<path fill="#FFFFFF" d="M-106.28,90.778l-2.93-7.48l2.529-0.264l1.691,4.28l2.226-0.234l-1.6-4.008l2.525-0.264l1.613,4.005
		l2.223-0.234l-1.754-4.312l2.521-0.263l3.077,7.496L-106.28,90.778"/>
	<path fill="#FFFFFF" d="M-106.056,78.133l-3.227,4.463l-2.797-4.008l2.319-2.443l-4.651-0.901l-2.576-3.694l7.643,1.934
		l3.353-4.552l2.792,3.893l-2.499,2.618l5.072,0.97l2.638,3.679L-106.056,78.133"/>
	<path fill="#FFFFFF" d="M-118.779,67.263l-0.877-0.818c-0.829-0.771-0.688-1.197,0.135-1.509c0.973-0.368,1.672-0.149,2.702,0.807
		l0.593,0.55L-118.779,67.263L-118.779,67.263z M-108.047,66.993l-2.933-2.692l-3.167,1.202l-2.272-2.1
		c-1.445-1.333-3.411-2.035-5.813-1.131c-2.574,0.968-2.289,2.369-0.644,3.908l4.913,4.601L-108.047,66.993"/>
	<path fill="#FFFFFF" d="M-129.915,55.462c1.725-0.963,3.361-0.858,4.521-0.108c1.159,0.753,1.218,1.749-0.509,2.72
		c-1.731,0.973-3.377,0.866-4.537,0.106C-131.598,57.423-131.644,56.426-129.915,55.462L-129.915,55.462z M-133.481,53.139
		c-2.528,1.4-2.96,3.445,1.113,6.121c2.159,1.419,3.561,1.894,4.942,2.097c1.664,0.245,3.507,0.004,5.145-0.923
		c2.521-1.426,2.901-3.489-1.212-6.145c-2.151-1.39-4.174-1.999-5.942-2.097C-130.786,52.113-132.188,52.421-133.481,53.139"/>
</g>
<path fill="#FFFFFF" d="M-147.253,153.852l4.682-2.151l8.006,8.104l-4.71,2.199L-147.253,153.852"/>
<g>
	<polygon fill="none" points="-230.97,163.34 -226.575,164.06 -229.194,171.368 -223.49,172.31 -220.923,164.984 -216.509,165.707 
		-215.704,163.371 -230.124,161.019 	"/>
	<path fill="#E6E6E6" d="M-193.015,144.483c-6.671,0-10.007,0.209-30.231,10.007c-3.598,1.744-6.712,3.781-9.418,5.994l0.783,0.239
		l-5.863,9.058l-2.869-0.89c-6.204,8.526-8.311,17.607-8.694,22.71c-0.625,8.341,4.169,15.222,4.169,15.222l15.012,12.716
		l-3.336-10.633c-2.621-16.722,7.31-32.244,19.682-43.491l0.225-1.879l1.804,0.092c7.773-6.644,16.268-11.603,23.115-14.142
		c7.627-2.828,15.815-4.629,23.007-4.197l0.03-0.023C-165.599,145.265-186.344,144.483-193.015,144.483z M-216.509,165.707
		l-4.415-0.723l-2.567,7.326l-5.704-0.942l2.619-7.308l-4.395-0.72l0.846-2.321l14.42,2.352L-216.509,165.707z"/>
</g>
</svg>
