<?xml version="1.0" encoding="utf-8"?>
<!-- Generator: Adobe Illustrator 16.0.0, SVG Export Plug-In . SVG Version: 6.00 Build 0)  -->
<!DOCTYPE svg PUBLIC "-//W3C//DTD SVG 1.1//EN" "http://www.w3.org/Graphics/SVG/1.1/DTD/svg11.dtd">
<svg version="1.1"
	 id="svg14588" sodipodi:docname="EA.svg" xmlns:rdf="http://www.w3.org/1999/02/22-rdf-syntax-ns#" xmlns:cc="http://web.resource.org/cc/" xmlns:dc="http://purl.org/dc/elements/1.1/" sodipodi:docbase="F:\Logos" sodipodi:version="0.32" inkscape:version="0.44" xmlns:svg="http://www.w3.org/2000/svg" xmlns:sodipodi="http://sodipodi.sourceforge.net/DTD/sodipodi-0.dtd" xmlns:inkscape="http://www.inkscape.org/namespaces/inkscape"
	 xmlns="http://www.w3.org/2000/svg" xmlns:xlink="http://www.w3.org/1999/xlink" x="0px" y="0px" width="829.158px"
	 height="386.277px" viewBox="0 0 829.158 386.277" enable-background="new 0 0 829.158 386.277" xml:space="preserve">
<sodipodi:namedview  id="base" inkscape:cx="350" bordercolor="#666666" inkscape:zoom="0.35" inkscape:cy="520" pagecolor="#ffffff" borderopacity="1.0" inkscape:window-height="573" inkscape:window-width="925" inkscape:current-layer="layer1" inkscape:window-y="389" inkscape:window-x="-12" inkscape:pageshadow="2" inkscape:document-units="px" inkscape:pageopacity="0.0">
	</sodipodi:namedview>
<g id="layer1" transform="translate(334.1942,-252.9926)" inkscape:label="Ebene 1" inkscape:groupmode="layer">
	<path id="path7103" fill="#FFFFFF" d="M150.79,259.014l-314.889,0.516l-51.31,81.908l314.42-0.117L150.79,259.014 M14.666,556.893
		c-3.748,0-186.496,0.398-199.147,0.444c6.092-9.605,40.767-64.055,42.641-67.124c3.983,0,123.003,0,129.329,0l52.013-82.26
		l-297.316,0.516l-51.778,81.979c0,0,1.406,0,3.28,0l0,0c3.515,0,9.606,0,16.4-0.047c17.338-0.023,40.768-0.07,48.499-0.07
		c0.468,0,0.937,0,1.171,0c-4.92,7.825-58.104,91.959-82.236,130.219c-4.92,7.873-8.669,13.894-10.543,16.869l0,0
		c-0.703,1.172-1.172,1.852-1.172,1.852l396.188-0.047c7.028-11.082,138.701-221.242,144.792-230.871
		c5.389,8.224,40.768,64.336,46.625,73.731c-8.903,0-41.236,0-41.236,0l-51.544,81.932c0,0,0.234,0,0.703,0
		c10.543,0,140.341,0,144.089,0c2.109,3.304,44.75,70.639,47.093,74.177h98.169L206.551,252.992
		C196.945,268.034,17.009,553.425,14.666,556.893"/>
	<path id="path7107" fill="#FFFFFF" d="M489.341,616.426l-4.92,13.847l-4.92-13.847h-5.623v19.376h3.515v-15.675l5.389,15.675h3.28
		l5.154-15.675v15.675h3.749v-19.376H489.341"/>
	<path id="path7109" fill="#FFFFFF" d="M453.728,619.636h6.326v16.166h3.983v-16.166h6.325v-3.21h-16.635V619.636"/>
</g>
</svg>
