<?xml version="1.0" encoding="utf-8"?>
<!-- Generator: Adobe Illustrator 16.0.0, SVG Export Plug-In . SVG Version: 6.00 Build 0)  -->
<!DOCTYPE svg PUBLIC "-//W3C//DTD SVG 1.1//EN" "http://www.w3.org/Graphics/SVG/1.1/DTD/svg11.dtd">
<svg version="1.1"
	 id="svg4871" sodipodi:docname="Nintendo.svg" xmlns:rdf="http://www.w3.org/1999/02/22-rdf-syntax-ns#" xmlns:cc="http://web.resource.org/cc/" xmlns:dc="http://purl.org/dc/elements/1.1/" sodipodi:docbase="/home/rugby471/Desktop" sodipodi:version="0.32" inkscape:version="0.45" sodipodi:modified="true" inkscape:output_extension="org.inkscape.output.svg.inkscape" xmlns:svg="http://www.w3.org/2000/svg" xmlns:sodipodi="http://sodipodi.sourceforge.net/DTD/sodipodi-0.dtd" xmlns:inkscape="http://www.inkscape.org/namespaces/inkscape"
	 xmlns="http://www.w3.org/2000/svg" xmlns:xlink="http://www.w3.org/1999/xlink" x="0px" y="0px" width="504.248px"
	 height="124.221px" viewBox="0 0 504.248 124.221" enable-background="new 0 0 504.248 124.221" xml:space="preserve">
<sodipodi:namedview  id="base" inkscape:cx="304.94423" bordercolor="#666666" inkscape:zoom="0.98994949" inkscape:cy="110.42589" pagecolor="#ffffff" borderopacity="1.0" inkscape:window-height="622" inkscape:window-width="910" inkscape:current-layer="layer1" inkscape:window-y="28" inkscape:window-x="51" inkscape:pageshadow="2" inkscape:document-units="px" inkscape:pageopacity="0.0" gridtolerance="10000" guidetolerance="10" objecttolerance="10">
	</sodipodi:namedview>
<g id="layer1" transform="translate(-399.305, -355.966)" inkscape:label="Layer 1" inkscape:groupmode="layer">
	<path id="path3361" fill="#FFFFFF" d="M449.334,388.736h18.209l25.212,40.779l-0.015-40.779h18.077v58.477h-18.049l-25.343-40.779
		v40.779h-18.106L449.334,388.736"/>
	<path id="path3363" fill="#FFFFFF" d="M609.11,394.747h17.596v7.864h9.513v5.792h-9.513l0.015,38.81h-17.625l0.015-38.81h-9.557
		v-5.777h9.571L609.11,394.747"/>
	<path id="path3365" fill="#FFFFFF" d="M520.883,408.33h17.581v38.883h-17.581V408.33"/>
	<path id="path3367" fill="#FFFFFF" d="M520.84,388.722h17.624v11.949H520.84V388.722z"/>
	<path id="path3369" fill="#FFFFFF" d="M836.117,427.458c0,0-0.015,5.88-0.015,8.229c0,6.201-3.662,8.755-7.192,8.755
		c-3.517,0-7.193-2.554-7.193-8.755c0-2.349,0-8.374,0-8.374s0.015-5.764,0.015-8.112c0-6.172,3.677-8.71,7.179-8.71
		c3.516,0,7.192,2.538,7.192,8.71c0,2.349,0,6.711,0.015,8.272V427.458z M829.055,405.675c-14.196,0-25.707,9.775-25.707,21.827
		c0,12.065,11.511,21.841,25.707,21.841s25.693-9.775,25.693-21.841C854.749,415.45,843.252,405.675,829.055,405.675"/>
	<path id="path3371" fill="#FFFFFF" d="M780.266,388.736h17.362v58.477h-17.392c0,0-0.015-1.896-0.015-2.247
		c-6.726,4.217-14.312,4.202-20.236,1.459c-1.575-0.744-12.022-5.748-12.022-19.288c0-10.257,9.688-21.477,22.353-20.353
		c4.173,0.364,7.149,1.882,9.95,3.473C780.266,401.254,780.266,388.736,780.266,388.736z M780.398,427.575c0,0,0-4.888,0-6.945
		c0-6.025-4.158-7.558-6.887-7.558c-2.802,0-6.901,1.532-6.901,7.558c0,1.984,0.015,6.916,0.015,6.916s-0.015,4.858-0.015,6.93
		c0,5.997,4.1,7.572,6.887,7.572c2.743,0,6.901-1.575,6.901-7.572C780.398,431.967,780.398,427.575,780.398,427.575"/>
	<path id="path3373" fill="#FFFFFF" d="M579.638,406.521c6.565-0.175,19.915,4.129,19.828,19.521
		c-0.029,2.743-0.015,21.155-0.015,21.155h-17.479c0,0,0-23.096,0-25.532c0-3.385-3.239-7.164-8.024-7.164
		c-4.8,0-8.346,3.779-8.346,7.164c0,1.648,0.015,25.532,0.015,25.532h-17.464l-0.015-38.883l17.479-0.014c0,0-0.029,3.137,0,4.1
		C568.972,409.191,573.832,406.696,579.638,406.521"/>
	<path id="path3375" fill="#FFFFFF" d="M722.547,406.521c6.581-0.175,19.916,4.129,19.813,19.521c-0.015,2.743,0,21.155,0,21.155
		h-17.464c0,0,0-23.096,0-25.532c0-3.385-3.254-7.164-8.039-7.164c-4.786,0-8.346,3.779-8.346,7.164
		c0,1.648,0.015,25.532,0.015,25.532h-17.465l0.015-38.883l17.45-0.014c0,0-0.015,3.137,0,4.1
		C711.897,409.191,716.741,406.696,722.547,406.521"/>
	<path id="path3377" fill="#FFFFFF" d="M652.603,421.885c-0.029-3.414,0.044-5.69,1.167-7.631c1.372-2.393,3.896-3.545,6.187-3.545
		h-0.015c2.305,0,4.829,1.152,6.2,3.545c1.109,1.94,1.168,4.217,1.139,7.631H652.603z M667.222,433.615c0,0,0.015,0.16,0.015,2.349
		c0,7.12-4.684,8.696-7.28,8.696c-2.598,0-7.354-1.576-7.354-8.696c0-2.13,0.015-8.024,0.015-8.024s33.119,0.015,33.119,0
		c0-12.065-11.643-22.061-25.941-22.061c-14.298,0-25.896,9.775-25.896,21.842c0,12.052,11.599,21.827,25.896,21.827
		c11.862,0,21.886-6.771,24.949-15.947L667.222,433.615"/>
	<path id="path3379" fill="#FFFFFF" d="M857.492,393.084c2.845,0,4.26,0.963,4.26,2.874c0,1.313-0.816,2.306-2.188,2.641
		l2.232,4.465h-2.699l-1.896-4.085h-1.196v4.085h-2.422v-9.979H857.492z M857.273,389.188c-4.976,0-9.003,4.041-9.003,9.002
		c0,4.976,4.027,9.002,9.003,9.002c4.975,0,9.002-4.026,9.002-9.002C866.275,393.229,862.248,389.188,857.273,389.188z
		 M864.553,398.19c0,4.026-3.269,7.28-7.28,7.28c-4.027,0-7.281-3.254-7.281-7.28c0-4.013,3.254-7.28,7.281-7.28
		C861.285,390.91,864.553,394.178,864.553,398.19z M856.003,397.519h1.196c1.386,0,2.043-0.424,2.043-1.416
		c0-1.035-0.716-1.487-2.175-1.487h-1.064V397.519"/>
	<path id="path3381" fill="#FFFFFF" d="M465.252,480.186c-39.524-0.015-65.947-28.027-65.947-61.993
		c0-33.98,26.481-62.314,65.889-62.227h372.456c39.422-0.088,65.903,28.246,65.903,62.227c0,33.966-26.423,61.979-65.947,61.993
		H465.252z M465.383,371.242c-31.311,0.059-50.52,20.98-50.52,46.863c0,25.868,19.092,46.966,50.52,46.85h372.091
		c31.427,0.116,50.511-20.981,50.511-46.85c0-25.883-19.201-46.805-50.511-46.863H465.383"/>
</g>
</svg>
