<?xml version="1.0" encoding="utf-8"?>
<!-- Generator: Adobe Illustrator 16.0.0, SVG Export Plug-In . SVG Version: 6.00 Build 0)  -->
<!DOCTYPE svg PUBLIC "-//W3C//DTD SVG 1.1//EN" "http://www.w3.org/Graphics/SVG/1.1/DTD/svg11.dtd">
<svg version="1.1" id="Layer_1" xmlns="http://www.w3.org/2000/svg" xmlns:xlink="http://www.w3.org/1999/xlink" x="0px" y="0px"
	 width="464px" height="115px" viewBox="0 0 464 115" enable-background="new 0 0 464 115" xml:space="preserve">
<g>
	<g>
		<path fill-rule="evenodd" clip-rule="evenodd" fill="#FFFFFF" d="M163.557,70.038c9.355,2.051,18.561,4.068,27.718,6.075
			c-2.406,21.065-18.925,36.941-39.842,38.524c-7.01,0.53-14.031,0.636-21.021-0.772c-19.374-3.902-31.508-15.628-36.581-34.438
			c-3.857-14.304-3.827-28.878-0.073-43.237c5.59-21.379,22.631-34.945,44.819-36.069c6.035-0.306,12.043-0.049,18.021,0.999
			c17.564,3.081,30.303,15.967,33.337,34.313c-4.5,1.351-9.081,2.739-13.67,4.1c-4.61,1.368-9.228,2.708-14.109,4.139
			c-1.207-3.018-2.126-5.677-3.314-8.211c-2.806-5.985-7.039-10.088-14.094-10.489c-7.599-0.431-13.855,1.854-18.107,8.477
			c-2.296,3.577-3.718,7.514-4.312,11.694c-1.546,10.874-1.903,21.712,2.18,32.19c2.71,6.956,7.262,12.077,15.042,13.27
			c10.452,1.602,17.059-2.195,21.06-11.984C161.676,76.013,162.451,73.29,163.557,70.038z"/>
		<path fill-rule="evenodd" clip-rule="evenodd" fill="#FFFFFF" d="M293.46,53.227c0-16.539,0-33.078,0-49.961
			c6.186,0,11.966,0,18.403,0c2.805,10.607,5.673,21.445,8.541,32.284c0.322-0.021,0.643-0.042,0.964-0.063
			c2.562-10.754,5.123-21.508,7.708-32.359c6.336,0,12.304,0,18.588,0c0,17.01,0,33.811,0,50.892c-4.124,0-8.073,0-12.485,0
			c0-9.086,0-18.205,0-27.322c-0.346-0.06-0.692-0.12-1.038-0.179c-2.555,9.059-5.108,18.118-7.701,27.315
			c-4.031,0.868-7.992,0.382-12.374,0.342c-2.65-9.68-5.272-19.258-7.895-28.837c-0.213,0.012-0.426,0.024-0.638,0.036
			c0,9.326,0,18.653,0,27.979C301.502,54.087,297.473,54.324,293.46,53.227z"/>
		<path fill-rule="evenodd" clip-rule="evenodd" fill="#FFFFFF" d="M402.391,3.289c4.521-0.576,8.449-0.493,12.662-0.107
			c0,16.923,0,33.604,0,50.582c-3.996,1.109-8.142,0.291-12.595,0.51c-6.291-9.112-12.63-18.293-18.97-27.476
			c-0.309,0.068-0.618,0.136-0.926,0.204c0,8.887,0,17.773,0,26.776c-4.344,0.853-8.115,0.508-12.269,0.35
			c0-17.007,0-33.793,0-50.896c4.408,0,8.694,0,13.493,0c5.73,8.699,11.648,17.687,17.567,26.674
			c0.346-0.096,0.693-0.191,1.039-0.287C402.391,20.888,402.391,12.158,402.391,3.289z"/>
		<path fill-rule="evenodd" clip-rule="evenodd" fill="#FFFFFF" d="M463.43,54.16c-3.72,0-6.873,0-9.988,0
			c-1.501-1.449-0.362-3.333-1.25-5.162c-6.149,7.104-13.786,7.543-21.89,4.561c-8.312-3.059-11.807-9.803-13.175-18.092
			c-0.717-4.346-0.889-8.628-0.109-12.976c2.779-15.475,14.812-23.518,30.16-20.101c7.976,1.776,12.899,6.991,14.96,16.275
			c-3.908,1.106-7.857,2.225-12.027,3.405c-0.527-0.97-1.07-1.794-1.446-2.689c-1.658-3.933-4.4-6.408-8.85-6.003
			c-4.556,0.414-7.169,3.295-8.318,7.572c-1.52,5.658-1.393,11.273,0.76,16.76c1.567,3.998,4.665,6.183,8.864,6.288
			c3.682,0.092,6.72-1.423,8.725-5.467c-2.485-0.348-4.519-0.634-6.818-0.956c0-3.153,0-6.099,0-9.522c6.752,0,13.475,0,20.403,0
			C463.43,36.704,463.43,45.185,463.43,54.16z"/>
		<path fill-rule="evenodd" clip-rule="evenodd" fill="#FFFFFF" d="M229.597,38.382c-2.58-0.287-4.531-0.505-6.676-0.744
			c-0.876-3.116-0.271-6.084-0.455-9.544c7.011,0,13.724,0,20.7,0c0,8.567,0,17.052,0,25.804c-3.409,0.806-6.856,0.233-10.481,0.341
			c-0.192-1.792-0.348-3.253-0.57-5.326c-4.35,4.719-9.418,6.958-15.58,6.208c-10.907-1.327-17.402-7.588-19.494-18.512
			c-1.324-6.913-1.146-13.703,1.271-20.3c3.749-10.234,12.558-15.077,25.502-14.282c9.4,0.576,15.572,6.051,18.066,16.266
			c-3.656,1.915-7.819,2.388-11.661,3.66c-1.519-0.919-1.697-2.543-2.385-3.834c-1.648-3.093-4.168-4.875-7.657-4.778
			c-3.607,0.1-6.513,1.767-7.965,5.188c-2.828,6.661-2.68,13.414,0.18,20.005c1.53,3.526,4.607,5.382,8.389,5.463
			C224.467,44.076,227.573,42.696,229.597,38.382z"/>
		<path fill-rule="evenodd" clip-rule="evenodd" fill="#FFFFFF" d="M362.478,113.04c-1.894,0.836-3.32,0.921-5.082,0.005
			c-3.414-13.856-6.88-27.919-10.346-41.981c-0.302,0.004-0.605,0.009-0.907,0.013c-3.515,14.004-7.03,28.008-10.511,41.88
			c-1.569,1.081-3.013,0.846-5.001,0.242c-4.412-16.505-8.892-33.259-13.355-49.955c1.542-1.275,2.976-0.842,4.944-0.361
			c3.567,13.804,7.189,27.823,11.101,42.955c3.718-15.125,7.16-29.126,10.53-42.833c1.991-0.798,3.453-0.699,5.495-0.092
			c3.387,13.523,6.844,27.324,10.301,41.125c0.285-0.004,0.57-0.009,0.854-0.013c3.501-13.663,7.003-27.326,10.44-40.738
			c1.636-1.295,3.049-0.823,4.887-0.525C371.303,79.803,366.854,96.558,362.478,113.04z"/>
		<path fill-rule="evenodd" clip-rule="evenodd" fill="#FFFFFF" d="M365.706,54.084c-4.549,0-8.698,0-13.29,0
			c0-16.776,0-33.572,0-50.73c4.228-0.797,8.614-0.534,13.29-0.112C365.706,20.157,365.706,36.832,365.706,54.084z"/>
		<path fill-rule="evenodd" clip-rule="evenodd" fill="#FFFFFF" d="M241.29,84.146c9.213,0,17.854,0,27.121,0
			c0-6.956,0-13.884,0-20.21c1.838-1.951,3.254-1.589,5.023-1.015c0,16.611,0,33.28,0,50.006c-1.296,1.14-2.686,0.932-4.736,0.031
			c0-7.702,0-15.652,0-23.851c-9.397,0-18.167,0-27.391,0c0,8.146,0,15.961,0,23.449c-1.733,1.52-3.112,1.294-4.805,0.559
			c0-16.622,0-33.295,0-49.967c1.463-1.036,2.828-0.93,4.788,0.145C241.29,69.979,241.29,76.925,241.29,84.146z"/>
		<path fill-rule="evenodd" clip-rule="evenodd" fill="#FFFFFF" d="M197.037,101.774c0.911-1.55,2.265-1.577,3.414-1.973
			c6.168,9.657,11.415,12.203,20.281,9.83c3.968-1.062,7.028-3.219,7.544-7.683c0.509-4.402-1.524-7.501-5.482-9.163
			c-5.078-2.132-10.312-3.889-15.393-6.014c-6.845-2.863-9.845-7.358-9.188-13.305c0.626-5.658,5.026-10.167,11.603-11.628
			c10.082-2.239,20.353,3.332,21.492,10.821c-0.562,1.441-1.762,1.828-3.272,1.848c-0.318-0.3-0.751-0.584-1.019-0.98
			c-4.555-6.742-8.874-8.615-16.636-7.093c-3.784,0.741-6.468,2.837-7.117,6.781c-0.612,3.721,0.879,6.732,4.323,8.229
			c5.812,2.524,11.83,4.574,17.641,7.1c5.398,2.346,8.326,6.511,8.128,12.614c-0.121,3.742-1.593,6.857-4.395,9.224
			C219.949,117.996,200.718,116.092,197.037,101.774z"/>
		<path fill-rule="evenodd" clip-rule="evenodd" fill="#FFFFFF" d="M88.834,30.221C86.531,16.981,78.67,8.817,65.961,5.028
			C59.014,2.958,51.884,2.15,44.676,2.111C29.784,2.031,14.892,2.07,0,2.061c0,36.877,0,73.754,0,110.63c9.803,0,19.606,0,30.061,0
			c0-11.9,0-23.331,0-35.003c9.633-0.411,18.677,0.398,27.612-1.2c14.412-2.578,26.085-8.665,30.428-23.896
			C90.193,45.255,90.141,37.734,88.834,30.221z M60.27,43.013c-0.687,6.312-4.714,10.653-11.482,11.211
			c-5.955,0.491-11.981,0.103-18.575,0.103c-0.113-1.453-0.272-2.585-0.276-3.717c-0.022-7.835-0.011-15.67-0.011-24.054
			c7.639-0.207,14.938-1.025,22.059,1.196C58.336,29.732,61.125,35.15,60.27,43.013z"/>
		<path fill-rule="evenodd" clip-rule="evenodd" fill="#FFFFFF" d="M293.46,53.227c-4.21-8.403-6.559-17.503-9.818-26.262
			c-3.012-8.095-5.836-16.261-8.788-24.521c-4.643,0.255-8.783-0.599-13.055,0.62c-5.756,16.292-11.496,32.52-17.206,48.758
			c-0.208,0.591-0.119,1.286-0.187,2.176c4.098,0,8,0,11.924,0c1.324-3.299,2.547-6.35,3.669-9.146c5.605,0,10.732,0,15.869,0
			c1.178,3.248,2.247,6.196,3.423,9.44c5.305,0,10.482,0.193,15.638-0.067c3.532-0.178,7.225,1.176,10.605-0.872
			C301.51,53.31,297.485,53.269,293.46,53.227z M263.705,34.336c0.722-4.681,2.547-8.673,4.472-13.546
			c1.681,5.101,2.971,9.015,4.332,13.145C269.505,35.006,266.782,34.541,263.705,34.336z"/>
		<path fill-rule="evenodd" clip-rule="evenodd" fill="#FFFFFF" d="M316.14,72.344c-6.991-13.342-24.541-14.803-33.955-3.029
			c-4.371,5.465-5.689,11.978-5.696,20.191c-0.166,4.283,0.938,9.645,3.814,14.526c4.037,6.854,9.964,10.73,18.07,10.66
			c8.111-0.07,14.231-3.949,17.829-11.01C321.463,93.357,321.525,82.621,316.14,72.344z M311.321,102.493
			c-5.671,10.439-20.344,10.322-26.331,0.054c-2.592-4.445-3.618-9.297-3.428-14.421c-0.194-5.296,0.859-10.303,3.651-14.854
			c5.936-9.676,20.226-9.82,25.865,0.024C316.537,82.82,316.541,92.884,311.321,102.493z"/>
	</g>
</g>
</svg>
