<?xml version="1.0" encoding="utf-8"?>
<!-- Generator: Adobe Illustrator 16.0.0, SVG Export Plug-In . SVG Version: 6.00 Build 0)  -->
<!DOCTYPE svg PUBLIC "-//W3C//DTD SVG 1.1//EN" "http://www.w3.org/Graphics/SVG/1.1/DTD/svg11.dtd">
<svg version="1.1" id="Layer_1" xmlns="http://www.w3.org/2000/svg" xmlns:xlink="http://www.w3.org/1999/xlink" x="0px" y="0px"
	 width="841.89px" height="142px" viewBox="0 0 841.89 142" enable-background="new 0 0 841.89 142" xml:space="preserve">
<g transform="translate(677.75822,-316.64792)">
	<path fill="#FFFFFF" d="M-530.449,323.01h16.122v42.642h-16.122c-8.027-26.436-47.972-30.393-73.012-30.393
		c-21.906,0-38.269,5.761-38.269,16.884c0,12.86,30.814,13.221,55.731,16.596c32.078,4.344,78.871,3.602,78.871,45.53
		c0,33.091-43.949,44.318-71.474,44.379c-49.269,0.109-64.562-14.086-75.837-14.086c-3.124,0-4.738,3.024-4.738,9.069h-16.113
		v-47.844h16.113c6.054,28.84,50.4,35.125,69.083,35.125c13.248,0,47.328-2.598,47.328-18.346c0-14.924-21.868-14.148-48.44-17.94
		c-29.119-4.16-86.549-5.068-86.549-43.797c0-29.876,33.479-44.181,71.047-44.181c43.637,0,65.21,14.171,71.681,14.171
		C-531.977,330.819-530.449,328.012-530.449,323.01L-530.449,323.01z"/>
	<path fill="#FFFFFF" d="M-379.244,316.648c-59.091,0-98.217,30.416-98.217,71s39.13,71,98.217,71c59.085,0,98.216-30.416,98.216-71
		S-320.154,316.648-379.244,316.648z M-379.244,335.581c33.886,0,56.327,22.303,56.327,52.066c0,29.759-22.44,52.067-56.327,52.067
		c-33.888,0-56.327-22.308-56.327-52.067C-435.571,357.884-413.131,335.581-379.244,335.581L-379.244,335.581z"/>
	<path fill="#FFFFFF" d="M-83.121,450.776h-25.981l-103.702-88.722v65.974c0,4.426,2.215,6.636,6.637,6.636h18.961v16.112h-77.541
		v-16.112h18.962c4.42,0,6.636-2.21,6.636-6.636v-80.766c0-4.42-2.216-6.636-6.636-6.636h-18.962v-16.112h65.026l90.246,77.158
		v-54.41c0-4.42-2.211-6.636-6.637-6.636h-18.962v-16.112h77.541v16.112h-18.952c-4.426,0-6.636,2.215-6.636,6.636V450.776
		L-83.121,450.776z"/>
	<path fill="#FFFFFF" d="M85.248,324.515h76.197v16.112h-14.957c-6.343,0-11.644,2.215-15.904,6.636l-51.021,54.41v26.355
		c0,4.426,2.21,6.636,6.636,6.636h18.957v16.112H13.207v-16.112h18.957c4.426,0,6.636-2.21,6.636-6.636v-24.647l-52.327-56.118
		c-4.293-4.42-9.604-6.636-15.918-6.636h-14.98v-16.112h93.653v16.112h-9.286c-2.277,0-3.73,0.791-4.365,2.371
		c-0.629,1.581-0.378,3.001,0.763,4.265l30.899,32.987l30.903-32.987c1.136-1.263,1.393-2.684,0.758-4.265
		c-0.63-1.581-2.083-2.371-4.359-2.371h-9.292V324.515L85.248,324.515z"/>
</g>
</svg>
