<?xml version="1.0" encoding="utf-8"?>
<!-- Generator: Adobe Illustrator 16.0.0, SVG Export Plug-In . SVG Version: 6.00 Build 0)  -->
<!DOCTYPE svg PUBLIC "-//W3C//DTD SVG 1.1//EN" "http://www.w3.org/Graphics/SVG/1.1/DTD/svg11.dtd">
<svg version="1.1" id="Layer_1" xmlns="http://www.w3.org/2000/svg" xmlns:xlink="http://www.w3.org/1999/xlink" x="0px" y="0px"
	 width="453px" height="135px" viewBox="0 0 453 135" enable-background="new 0 0 453 135" xml:space="preserve">
<g>
	<path fill="#FFFFFF" d="M298.906,61.488v0.413h8.763c0-3.973,0.199-9.142-9.334-9.142h-0.014h-28.759c0,0,0,8.161,0,11.301
		c0,3.141,1.421,8.491,8.864,8.491c6.171,0,20.767,0,20.767,0s0,1.43,0,1.774c0,2.031-0.198,2.93-4.098,2.93c0,0-13.558,0-15.344,0
		c-1.788,0-1.646-1.489-1.646-1.489v-0.553h-8.839c0,0,0,1.24,0,2.487c0,2.854,1.171,6.9,7.772,6.9c0,0,20.796,0,22.769,0
		c4.299,0,8.944-1.607,8.944-7.162c0-1.298,0-3.23,0-5.245c0-3.16-0.76-7.224-7.949-7.224h-16.295c-4.711,0-5.446-1.086-5.446-3.229
		v-1.637c0,0,17.682,0,18.27,0C297.962,60.104,298.906,60.353,298.906,61.488L298.906,61.488z"/>
	<path fill="#FFFFFF" d="M188.042,70.953c0,2.017-0.404,3.467-1.214,4.305c-0.813,0.833-2.208,1.254-4.182,1.254h-9.582
		c-1.977,0-3.368-0.421-4.176-1.254c-0.816-0.838-1.221-2.289-1.221-4.305V52.761h-9.666v20.277c0,3.948,1.042,6.86,3.132,8.745
		c2.094,1.883,5.36,2.818,9.801,2.818h26.766l0.017-31.84h-9.676V70.953L188.042,70.953z"/>
	<path fill="#FFFFFF" d="M240.177,68.259c1.624-0.449,2.807-1.157,3.546-2.11c0.736-0.935,1.108-2.635,1.108-5.11
		c0-3.051-0.91-5.185-2.717-6.409c-1.814-1.234-4.729-1.87-8.729-1.87h-27.831v31.84h30.787c3.072,0,5.459-0.608,7.116-1.795
		c1.672-1.188,2.5-3.685,2.5-6.877c0-2.442-0.422-4.245-1.298-5.416C243.793,69.335,242.292,68.582,240.177,68.259 M215.186,60.1
		h17.145c1.888,0,2.83,0.833,2.83,2.492c0,0.907-0.226,1.76-0.691,2.135c-0.46,0.368-1.174,0.536-2.138,0.536h-17.145V60.1
		 M235.16,76.75c-0.576,0.339-1.448,0.503-2.606,0.503h-17.369v-5.471h17.369c1.136,0,1.991,0.189,2.591,0.579
		c0.598,0.38,0.893,1.272,0.893,2.271C236.038,75.498,235.752,76.406,235.16,76.75L235.16,76.75z"/>
	<polygon fill="#FFFFFF" points="252.194,84.601 261.854,84.601 261.854,52.761 252.194,52.761 252.194,84.601 	"/>
	<polygon fill="#FFFFFF" points="363.189,84.601 372.843,84.601 372.843,74.275 395.013,74.275 395.013,66.187 372.843,66.187 
		372.843,60.828 396.106,60.828 396.106,52.761 363.189,52.761 363.189,84.601 	"/>
	<polygon fill="#FFFFFF" points="399.744,52.761 399.744,60.792 413.325,60.792 413.325,84.601 423.007,84.601 423.007,60.792 
		436.596,60.792 436.596,52.761 399.744,52.761 	"/>
	<path fill="#FFFFFF" d="M327.616,52.761c-6.04,0-8.259,0.919-10.402,2.463c-2.145,1.544-3.478,4.225-3.478,8.571v9.409
		c0,4.378,1.136,7.379,3.411,8.988c2.279,1.619,5.282,2.408,10.469,2.408h14.663c5.185,0,7.921-0.712,10.215-2.345
		c2.271-1.619,3.324-4.141,3.324-9.051V52.761H327.616 M346.063,70.507c0,2.609-0.256,3.765-1.072,4.633
		c-0.815,0.869-2.22,1.373-4.421,1.373h-11.628c-2.507,0-3.703-0.569-4.417-1.402c-0.714-0.832-1.105-2.256-1.105-4.91v-3.395
		c0-2.175,0.413-3.488,1.233-4.492c0.83-1.02,2.427-1.519,4.812-1.519h16.6V70.507L346.063,70.507z"/>
	<path fill="#FFFFFF" d="M445.341,54.934h-1.685v4.491h-1.062v-4.491h-1.685v-0.782h4.432V54.934 M449.45,57.921l1.384-3.769h1.464
		v5.273h-0.962v-4.351l-1.625,4.351h-0.541l-1.705-4.351v4.351h-0.962v-5.273h1.465L449.45,57.921L449.45,57.921z"/>
</g>
<g>
	<path fill="#FFFFFF" d="M67.884,0c-37.265,0-67.5,30.235-67.5,67.5c0,37.269,30.235,67.5,67.5,67.5c37.269,0,67.5-30.231,67.5-67.5
		C135.384,30.235,105.153,0,67.884,0z M2.146,77.66C1.618,74.207,1.349,70.79,1.349,67.5c0-17.243,6.604-33.591,18.6-46.04
		C31.911,9.053,47.939,1.839,65.089,1.156l1.046,0.058c-16,1.863-32.181,9.011-43.612,20.459C9.13,35.09,2.423,53.257,2.423,72.216
		c0,1.635-0.086,4.834,0.065,6.826L2.146,77.66z M23.565,31.257c19.699-24.244,55.35-27.889,79.585-8.194l-0.008-0.012
		c13.389,10.242,22.225,26.528,22.225,44.691c0,30.951-24.526,55.873-56.041,56.04c-42.651,0.226-46.264-37.354-46.264-37.354
		C20.68,66.389,35.004,48.201,55.047,45.823c1.467-0.175,2.926-0.26,4.367-0.261c12.193,0,23.278,6.102,29.959,15.685
		c-5.885-5.983-14.377-9.286-23.356-8.219c-15.412,1.835-26.41,15.808-24.583,31.216c1.831,15.412,15.747,25.813,31.216,24.583
		c15.396-1.226,29.161-15.988,26.107-38.201c-2.914-21.162-20.696-35.336-42.062-35.336c-23.583,0-42.705,19.221-42.705,42.926
		c0,3.15,0.335,6.22,0.973,9.174l0.384,1.484C7.515,70.246,9.935,48.029,23.565,31.257z M64.112,91.22
		c5.55,0.245,10.242-4.058,10.479-9.608c0.144-3.233-1.263-6.171-3.551-8.107c4.018,2.377,6.637,6.833,6.425,11.827
		c-0.314,7.218-6.42,12.821-13.634,12.506c-7.221-0.307-12.816-6.409-12.506-13.63c0.217-4.994,3.209-9.208,7.418-11.234
		c-2.448,1.736-4.103,4.542-4.238,7.778C54.262,86.296,58.562,90.983,64.112,91.22z M78.764,95.631
		c6.004-7.389,4.88-18.252-2.514-24.253c-7.394-6.011-18.248-4.883-24.256,2.506c-3.499,4.304-4.574,9.784-3.405,14.799
		c-3.106-7.39-2.146-16.205,3.257-22.858c7.822-9.613,21.951-11.072,31.568-3.261c9.613,7.81,11.076,21.938,3.261,31.555
		c-5.407,6.653-13.838,9.404-21.701,7.871C70.115,102.108,75.265,99.938,78.764,95.631z M68.096,133.913
		c-18.636,0-36.533-7.925-49.104-21.743l-0.009-0.008l-0.323-0.418c4.806,4.219,9.466,7.843,14.451,10.732
		c9.973,5.78,23.047,9.507,34.637,9.507c36.304,0,64.828-28.527,64.828-64.828c0-11.594-3.723-24.668-9.506-34.641
		c-2.889-4.986-6.768-9.735-10.99-14.423l0.682,0.298l0.008,0.008c13.814,12.572,21.738,30.468,21.738,49.101
		C134.509,104.124,104.715,133.913,68.096,133.913z"/>
</g>
</svg>
